# https://github.com/mikedh/trimesh
v -110.00000000 -4.00000000 0.00000000
v -107.21518987 -4.00000000 4.19141712
v -104.43037975 -4.00000000 5.78549940
v -101.64556962 -4.00000000 6.94065186
v -98.86075949 -4.00000000 7.86229168
v -96.07594937 -4.00000000 8.63024439
v -93.29113924 -4.00000000 9.28564949
v -90.50632911 -4.00000000 9.85310783
v -87.72151899 -4.00000000 10.34878324
v -84.93670886 -4.00000000 10.78401801
v -82.15189873 -4.00000000 11.16716947
v -79.36708861 -4.00000000 11.50463320
v -76.58227848 -4.00000000 11.80145406
v -73.79746835 -4.00000000 12.06171147
v -71.01265823 -4.00000000 12.28877320
v -68.22784810 -4.00000000 12.48546868
v -65.44303797 -4.00000000 12.65421101
v -62.65822785 -4.00000000 12.79708504
v -59.87341772 -4.00000000 12.91591246
v -57.08860759 -4.00000000 13.01230076
v -54.30379747 -4.00000000 13.08768075
v -51.51898734 -4.00000000 13.14333569
v -48.73417722 -4.00000000 13.18042432
v -45.94936709 -4.00000000 13.19999909
v -43.16455696 -4.00000000 13.20302101
v -40.37974684 -4.00000000 13.19037163
v -37.59493671 -4.00000000 13.16286292
v -34.81012658 -4.00000000 13.12124546
v -32.02531646 -4.00000000 13.06621527
v -29.24050633 -4.00000000 12.99841956
v -26.45569620 -4.00000000 12.91846158
v -23.67088608 -4.00000000 12.82690473
v -20.88607595 -4.00000000 12.72427614
v -18.10126582 -4.00000000 12.61106969
v -15.31645570 -4.00000000 12.48774865
v -12.53164557 -4.00000000 12.35474795
v -9.74683544 -4.00000000 12.21247621
v -6.96202532 -4.00000000 12.06131742
v -4.17721519 -4.00000000 11.90163258
v -1.39240506 -4.00000000 11.73376093
v 1.39240506 -4.00000000 11.55802125
v 4.17721519 -4.00000000 11.37471288
v 6.96202532 -4.00000000 11.18411666
v 9.74683544 -4.00000000 10.98649581
v 12.53164557 -4.00000000 10.78209667
v 15.31645570 -4.00000000 10.57114938
v 18.10126582 -4.00000000 10.35386849
v 20.88607595 -4.00000000 10.13045354
v 23.67088608 -4.00000000 9.90108954
v 26.45569620 -4.00000000 9.66594743
v 29.24050633 -4.00000000 9.42518448
v 32.02531646 -4.00000000 9.17894470
v 34.81012658 -4.00000000 8.92735915
v 37.59493671 -4.00000000 8.67054627
v 40.37974684 -4.00000000 8.40861216
v 43.16455696 -4.00000000 8.14165087
v 45.94936709 -4.00000000 7.86974457
v 48.73417722 -4.00000000 7.59296388
v 51.51898734 -4.00000000 7.31136796
v 54.30379747 -4.00000000 7.02500481
v 57.08860759 -4.00000000 6.73391134
v 59.87341772 -4.00000000 6.43811363
v 62.65822785 -4.00000000 6.13762698
v 65.44303797 -4.00000000 5.83245615
v 68.22784810 -4.00000000 5.52259541
v 71.01265823 -4.00000000 5.20802869
v 73.79746835 -4.00000000 4.88872973
v 76.58227848 -4.00000000 4.56466209
v 79.36708861 -4.00000000 4.23577934
v 82.15189873 -4.00000000 3.90202511
v 84.93670886 -4.00000000 3.56333317
v 87.72151899 -4.00000000 3.21962753
v 90.50632911 -4.00000000 2.87082249
v 93.29113924 -4.00000000 2.51682274
v 96.07594937 -4.00000000 2.15752339
v 98.86075949 -4.00000000 1.79281006
v 101.64556962 -4.00000000 1.42255893
v 104.43037975 -4.00000000 1.04663679
v 107.21518987 -4.00000000 0.66490109
v 110.00000000 -4.00000000 0.27720000
v 107.21518987 -4.00000000 -0.66490109
v 104.43037975 -4.00000000 -1.04663679
v 101.64556962 -4.00000000 -1.42255893
v 98.86075949 -4.00000000 -1.79281006
v 96.07594937 -4.00000000 -2.15752339
v 93.29113924 -4.00000000 -2.51682274
v 90.50632911 -4.00000000 -2.87082249
v 87.72151899 -4.00000000 -3.21962753
v 84.93670886 -4.00000000 -3.56333317
v 82.15189873 -4.00000000 -3.90202511
v 79.36708861 -4.00000000 -4.23577934
v 76.58227848 -4.00000000 -4.56466209
v 73.79746835 -4.00000000 -4.88872973
v 71.01265823 -4.00000000 -5.20802869
v 68.22784810 -4.00000000 -5.52259541
v 65.44303797 -4.00000000 -5.83245615
v 62.65822785 -4.00000000 -6.13762698
v 59.87341772 -4.00000000 -6.43811363
v 57.08860759 -4.00000000 -6.73391134
v 54.30379747 -4.00000000 -7.02500481
v 51.51898734 -4.00000000 -7.31136796
v 48.73417722 -4.00000000 -7.59296388
v 45.94936709 -4.00000000 -7.86974457
v 43.16455696 -4.00000000 -8.14165087
v 40.37974684 -4.00000000 -8.40861216
v 37.59493671 -4.00000000 -8.67054627
v 34.81012658 -4.00000000 -8.92735915
v 32.02531646 -4.00000000 -9.17894470
v 29.24050633 -4.00000000 -9.42518448
v 26.45569620 -4.00000000 -9.66594743
v 23.67088608 -4.00000000 -9.90108954
v 20.88607595 -4.00000000 -10.13045354
v 18.10126582 -4.00000000 -10.35386849
v 15.31645570 -4.00000000 -10.57114938
v 12.53164557 -4.00000000 -10.78209667
v 9.74683544 -4.00000000 -10.98649581
v 6.96202532 -4.00000000 -11.18411666
v 4.17721519 -4.00000000 -11.37471288
v 1.39240506 -4.00000000 -11.55802125
v -1.39240506 -4.00000000 -11.73376093
v -4.17721519 -4.00000000 -11.90163258
v -6.96202532 -4.00000000 -12.06131742
v -9.74683544 -4.00000000 -12.21247621
v -12.53164557 -4.00000000 -12.35474795
v -15.31645570 -4.00000000 -12.48774865
v -18.10126582 -4.00000000 -12.61106969
v -20.88607595 -4.00000000 -12.72427614
v -23.67088608 -4.00000000 -12.82690473
v -26.45569620 -4.00000000 -12.91846158
v -29.24050633 -4.00000000 -12.99841956
v -32.02531646 -4.00000000 -13.06621527
v -34.81012658 -4.00000000 -13.12124546
v -37.59493671 -4.00000000 -13.16286292
v -40.37974684 -4.00000000 -13.19037163
v -43.16455696 -4.00000000 -13.20302101
v -45.94936709 -4.00000000 -13.19999909
v -48.73417722 -4.00000000 -13.18042432
v -51.51898734 -4.00000000 -13.14333569
v -54.30379747 -4.00000000 -13.08768075
v -57.08860759 -4.00000000 -13.01230076
v -59.87341772 -4.00000000 -12.91591246
v -62.65822785 -4.00000000 -12.79708504
v -65.44303797 -4.00000000 -12.65421101
v -68.22784810 -4.00000000 -12.48546868
v -71.01265823 -4.00000000 -12.28877320
v -73.79746835 -4.00000000 -12.06171147
v -76.58227848 -4.00000000 -11.80145406
v -79.36708861 -4.00000000 -11.50463320
v -82.15189873 -4.00000000 -11.16716947
v -84.93670886 -4.00000000 -10.78401801
v -87.72151899 -4.00000000 -10.34878324
v -90.50632911 -4.00000000 -9.85310783
v -93.29113924 -4.00000000 -9.28564949
v -96.07594937 -4.00000000 -8.63024439
v -98.86075949 -4.00000000 -7.86229168
v -101.64556962 -4.00000000 -6.94065186
v -104.43037975 -4.00000000 -5.78549940
v -107.21518987 -4.00000000 -4.19141712
v -110.00000000 4.00000000 0.00000000
v -107.21518987 4.00000000 4.19141712
v -104.43037975 4.00000000 5.78549940
v -101.64556962 4.00000000 6.94065186
v -98.86075949 4.00000000 7.86229168
v -96.07594937 4.00000000 8.63024439
v -93.29113924 4.00000000 9.28564949
v -90.50632911 4.00000000 9.85310783
v -87.72151899 4.00000000 10.34878324
v -84.93670886 4.00000000 10.78401801
v -82.15189873 4.00000000 11.16716947
v -79.36708861 4.00000000 11.50463320
v -76.58227848 4.00000000 11.80145406
v -73.79746835 4.00000000 12.06171147
v -71.01265823 4.00000000 12.28877320
v -68.22784810 4.00000000 12.48546868
v -65.44303797 4.00000000 12.65421101
v -62.65822785 4.00000000 12.79708504
v -59.87341772 4.00000000 12.91591246
v -57.08860759 4.00000000 13.01230076
v -54.30379747 4.00000000 13.08768075
v -51.51898734 4.00000000 13.14333569
v -48.73417722 4.00000000 13.18042432
v -45.94936709 4.00000000 13.19999909
v -43.16455696 4.00000000 13.20302101
v -40.37974684 4.00000000 13.19037163
v -37.59493671 4.00000000 13.16286292
v -34.81012658 4.00000000 13.12124546
v -32.02531646 4.00000000 13.06621527
v -29.24050633 4.00000000 12.99841956
v -26.45569620 4.00000000 12.91846158
v -23.67088608 4.00000000 12.82690473
v -20.88607595 4.00000000 12.72427614
v -18.10126582 4.00000000 12.61106969
v -15.31645570 4.00000000 12.48774865
v -12.53164557 4.00000000 12.35474795
v -9.74683544 4.00000000 12.21247621
v -6.96202532 4.00000000 12.06131742
v -4.17721519 4.00000000 11.90163258
v -1.39240506 4.00000000 11.73376093
v 1.39240506 4.00000000 11.55802125
v 4.17721519 4.00000000 11.37471288
v 6.96202532 4.00000000 11.18411666
v 9.74683544 4.00000000 10.98649581
v 12.53164557 4.00000000 10.78209667
v 15.31645570 4.00000000 10.57114938
v 18.10126582 4.00000000 10.35386849
v 20.88607595 4.00000000 10.13045354
v 23.67088608 4.00000000 9.90108954
v 26.45569620 4.00000000 9.66594743
v 29.24050633 4.00000000 9.42518448
v 32.02531646 4.00000000 9.17894470
v 34.81012658 4.00000000 8.92735915
v 37.59493671 4.00000000 8.67054627
v 40.37974684 4.00000000 8.40861216
v 43.16455696 4.00000000 8.14165087
v 45.94936709 4.00000000 7.86974457
v 48.73417722 4.00000000 7.59296388
v 51.51898734 4.00000000 7.31136796
v 54.30379747 4.00000000 7.02500481
v 57.08860759 4.00000000 6.73391134
v 59.87341772 4.00000000 6.43811363
v 62.65822785 4.00000000 6.13762698
v 65.44303797 4.00000000 5.83245615
v 68.22784810 4.00000000 5.52259541
v 71.01265823 4.00000000 5.20802869
v 73.79746835 4.00000000 4.88872973
v 76.58227848 4.00000000 4.56466209
v 79.36708861 4.00000000 4.23577934
v 82.15189873 4.00000000 3.90202511
v 84.93670886 4.00000000 3.56333317
v 87.72151899 4.00000000 3.21962753
v 90.50632911 4.00000000 2.87082249
v 93.29113924 4.00000000 2.51682274
v 96.07594937 4.00000000 2.15752339
v 98.86075949 4.00000000 1.79281006
v 101.64556962 4.00000000 1.42255893
v 104.43037975 4.00000000 1.04663679
v 107.21518987 4.00000000 0.66490109
v 110.00000000 4.00000000 0.27720000
v 107.21518987 4.00000000 -0.66490109
v 104.43037975 4.00000000 -1.04663679
v 101.64556962 4.00000000 -1.42255893
v 98.86075949 4.00000000 -1.79281006
v 96.07594937 4.00000000 -2.15752339
v 93.29113924 4.00000000 -2.51682274
v 90.50632911 4.00000000 -2.87082249
v 87.72151899 4.00000000 -3.21962753
v 84.93670886 4.00000000 -3.56333317
v 82.15189873 4.00000000 -3.90202511
v 79.36708861 4.00000000 -4.23577934
v 76.58227848 4.00000000 -4.56466209
v 73.79746835 4.00000000 -4.88872973
v 71.01265823 4.00000000 -5.20802869
v 68.22784810 4.00000000 -5.52259541
v 65.44303797 4.00000000 -5.83245615
v 62.65822785 4.00000000 -6.13762698
v 59.87341772 4.00000000 -6.43811363
v 57.08860759 4.00000000 -6.73391134
v 54.30379747 4.00000000 -7.02500481
v 51.51898734 4.00000000 -7.31136796
v 48.73417722 4.00000000 -7.59296388
v 45.94936709 4.00000000 -7.86974457
v 43.16455696 4.00000000 -8.14165087
v 40.37974684 4.00000000 -8.40861216
v 37.59493671 4.00000000 -8.67054627
v 34.81012658 4.00000000 -8.92735915
v 32.02531646 4.00000000 -9.17894470
v 29.24050633 4.00000000 -9.42518448
v 26.45569620 4.00000000 -9.66594743
v 23.67088608 4.00000000 -9.90108954
v 20.88607595 4.00000000 -10.13045354
v 18.10126582 4.00000000 -10.35386849
v 15.31645570 4.00000000 -10.57114938
v 12.53164557 4.00000000 -10.78209667
v 9.74683544 4.00000000 -10.98649581
v 6.96202532 4.00000000 -11.18411666
v 4.17721519 4.00000000 -11.37471288
v 1.39240506 4.00000000 -11.55802125
v -1.39240506 4.00000000 -11.73376093
v -4.17721519 4.00000000 -11.90163258
v -6.96202532 4.00000000 -12.06131742
v -9.74683544 4.00000000 -12.21247621
v -12.53164557 4.00000000 -12.35474795
v -15.31645570 4.00000000 -12.48774865
v -18.10126582 4.00000000 -12.61106969
v -20.88607595 4.00000000 -12.72427614
v -23.67088608 4.00000000 -12.82690473
v -26.45569620 4.00000000 -12.91846158
v -29.24050633 4.00000000 -12.99841956
v -32.02531646 4.00000000 -13.06621527
v -34.81012658 4.00000000 -13.12124546
v -37.59493671 4.00000000 -13.16286292
v -40.37974684 4.00000000 -13.19037163
v -43.16455696 4.00000000 -13.20302101
v -45.94936709 4.00000000 -13.19999909
v -48.73417722 4.00000000 -13.18042432
v -51.51898734 4.00000000 -13.14333569
v -54.30379747 4.00000000 -13.08768075
v -57.08860759 4.00000000 -13.01230076
v -59.87341772 4.00000000 -12.91591246
v -62.65822785 4.00000000 -12.79708504
v -65.44303797 4.00000000 -12.65421101
v -68.22784810 4.00000000 -12.48546868
v -71.01265823 4.00000000 -12.28877320
v -73.79746835 4.00000000 -12.06171147
v -76.58227848 4.00000000 -11.80145406
v -79.36708861 4.00000000 -11.50463320
v -82.15189873 4.00000000 -11.16716947
v -84.93670886 4.00000000 -10.78401801
v -87.72151899 4.00000000 -10.34878324
v -90.50632911 4.00000000 -9.85310783
v -93.29113924 4.00000000 -9.28564949
v -96.07594937 4.00000000 -8.63024439
v -98.86075949 4.00000000 -7.86229168
v -101.64556962 4.00000000 -6.94065186
v -104.43037975 4.00000000 -5.78549940
v -107.21518987 4.00000000 -4.19141712
v -0.00000000 -4.00000000 0.00175443
v -0.00000000 4.00000000 0.00175443
v -97.50000000 -4.00000000 -26.00000000
v -97.50000000 -4.00000000 -6.00000000
v -97.50000000 4.00000000 -26.00000000
v -97.50000000 4.00000000 -6.00000000
v -22.50000000 -4.00000000 -26.00000000
v -22.50000000 -4.00000000 -6.00000000
v -22.50000000 4.00000000 -26.00000000
v -22.50000000 4.00000000 -6.00000000
f 1 2 160
f 1 160 159
f 317 2 1
f 318 159 160
f 2 3 161
f 2 161 160
f 317 3 2
f 318 160 161
f 3 4 162
f 3 162 161
f 317 4 3
f 318 161 162
f 4 5 163
f 4 163 162
f 317 5 4
f 318 162 163
f 5 6 164
f 5 164 163
f 317 6 5
f 318 163 164
f 6 7 165
f 6 165 164
f 317 7 6
f 318 164 165
f 7 8 166
f 7 166 165
f 317 8 7
f 318 165 166
f 8 9 167
f 8 167 166
f 317 9 8
f 318 166 167
f 9 10 168
f 9 168 167
f 317 10 9
f 318 167 168
f 10 11 169
f 10 169 168
f 317 11 10
f 318 168 169
f 11 12 170
f 11 170 169
f 317 12 11
f 318 169 170
f 12 13 171
f 12 171 170
f 317 13 12
f 318 170 171
f 13 14 172
f 13 172 171
f 317 14 13
f 318 171 172
f 14 15 173
f 14 173 172
f 317 15 14
f 318 172 173
f 15 16 174
f 15 174 173
f 317 16 15
f 318 173 174
f 16 17 175
f 16 175 174
f 317 17 16
f 318 174 175
f 17 18 176
f 17 176 175
f 317 18 17
f 318 175 176
f 18 19 177
f 18 177 176
f 317 19 18
f 318 176 177
f 19 20 178
f 19 178 177
f 317 20 19
f 318 177 178
f 20 21 179
f 20 179 178
f 317 21 20
f 318 178 179
f 21 22 180
f 21 180 179
f 317 22 21
f 318 179 180
f 22 23 181
f 22 181 180
f 317 23 22
f 318 180 181
f 23 24 182
f 23 182 181
f 317 24 23
f 318 181 182
f 24 25 183
f 24 183 182
f 317 25 24
f 318 182 183
f 25 26 184
f 25 184 183
f 317 26 25
f 318 183 184
f 26 27 185
f 26 185 184
f 317 27 26
f 318 184 185
f 27 28 186
f 27 186 185
f 317 28 27
f 318 185 186
f 28 29 187
f 28 187 186
f 317 29 28
f 318 186 187
f 29 30 188
f 29 188 187
f 317 30 29
f 318 187 188
f 30 31 189
f 30 189 188
f 317 31 30
f 318 188 189
f 31 32 190
f 31 190 189
f 317 32 31
f 318 189 190
f 32 33 191
f 32 191 190
f 317 33 32
f 318 190 191
f 33 34 192
f 33 192 191
f 317 34 33
f 318 191 192
f 34 35 193
f 34 193 192
f 317 35 34
f 318 192 193
f 35 36 194
f 35 194 193
f 317 36 35
f 318 193 194
f 36 37 195
f 36 195 194
f 317 37 36
f 318 194 195
f 37 38 196
f 37 196 195
f 317 38 37
f 318 195 196
f 38 39 197
f 38 197 196
f 317 39 38
f 318 196 197
f 39 40 198
f 39 198 197
f 317 40 39
f 318 197 198
f 40 41 199
f 40 199 198
f 317 41 40
f 318 198 199
f 41 42 200
f 41 200 199
f 317 42 41
f 318 199 200
f 42 43 201
f 42 201 200
f 317 43 42
f 318 200 201
f 43 44 202
f 43 202 201
f 317 44 43
f 318 201 202
f 44 45 203
f 44 203 202
f 317 45 44
f 318 202 203
f 45 46 204
f 45 204 203
f 317 46 45
f 318 203 204
f 46 47 205
f 46 205 204
f 317 47 46
f 318 204 205
f 47 48 206
f 47 206 205
f 317 48 47
f 318 205 206
f 48 49 207
f 48 207 206
f 317 49 48
f 318 206 207
f 49 50 208
f 49 208 207
f 317 50 49
f 318 207 208
f 50 51 209
f 50 209 208
f 317 51 50
f 318 208 209
f 51 52 210
f 51 210 209
f 317 52 51
f 318 209 210
f 52 53 211
f 52 211 210
f 317 53 52
f 318 210 211
f 53 54 212
f 53 212 211
f 317 54 53
f 318 211 212
f 54 55 213
f 54 213 212
f 317 55 54
f 318 212 213
f 55 56 214
f 55 214 213
f 317 56 55
f 318 213 214
f 56 57 215
f 56 215 214
f 317 57 56
f 318 214 215
f 57 58 216
f 57 216 215
f 317 58 57
f 318 215 216
f 58 59 217
f 58 217 216
f 317 59 58
f 318 216 217
f 59 60 218
f 59 218 217
f 317 60 59
f 318 217 218
f 60 61 219
f 60 219 218
f 317 61 60
f 318 218 219
f 61 62 220
f 61 220 219
f 317 62 61
f 318 219 220
f 62 63 221
f 62 221 220
f 317 63 62
f 318 220 221
f 63 64 222
f 63 222 221
f 317 64 63
f 318 221 222
f 64 65 223
f 64 223 222
f 317 65 64
f 318 222 223
f 65 66 224
f 65 224 223
f 317 66 65
f 318 223 224
f 66 67 225
f 66 225 224
f 317 67 66
f 318 224 225
f 67 68 226
f 67 226 225
f 317 68 67
f 318 225 226
f 68 69 227
f 68 227 226
f 317 69 68
f 318 226 227
f 69 70 228
f 69 228 227
f 317 70 69
f 318 227 228
f 70 71 229
f 70 229 228
f 317 71 70
f 318 228 229
f 71 72 230
f 71 230 229
f 317 72 71
f 318 229 230
f 72 73 231
f 72 231 230
f 317 73 72
f 318 230 231
f 73 74 232
f 73 232 231
f 317 74 73
f 318 231 232
f 74 75 233
f 74 233 232
f 317 75 74
f 318 232 233
f 75 76 234
f 75 234 233
f 317 76 75
f 318 233 234
f 76 77 235
f 76 235 234
f 317 77 76
f 318 234 235
f 77 78 236
f 77 236 235
f 317 78 77
f 318 235 236
f 78 79 237
f 78 237 236
f 317 79 78
f 318 236 237
f 79 80 238
f 79 238 237
f 317 80 79
f 318 237 238
f 80 81 239
f 80 239 238
f 317 81 80
f 318 238 239
f 81 82 240
f 81 240 239
f 317 82 81
f 318 239 240
f 82 83 241
f 82 241 240
f 317 83 82
f 318 240 241
f 83 84 242
f 83 242 241
f 317 84 83
f 318 241 242
f 84 85 243
f 84 243 242
f 317 85 84
f 318 242 243
f 85 86 244
f 85 244 243
f 317 86 85
f 318 243 244
f 86 87 245
f 86 245 244
f 317 87 86
f 318 244 245
f 87 88 246
f 87 246 245
f 317 88 87
f 318 245 246
f 88 89 247
f 88 247 246
f 317 89 88
f 318 246 247
f 89 90 248
f 89 248 247
f 317 90 89
f 318 247 248
f 90 91 249
f 90 249 248
f 317 91 90
f 318 248 249
f 91 92 250
f 91 250 249
f 317 92 91
f 318 249 250
f 92 93 251
f 92 251 250
f 317 93 92
f 318 250 251
f 93 94 252
f 93 252 251
f 317 94 93
f 318 251 252
f 94 95 253
f 94 253 252
f 317 95 94
f 318 252 253
f 95 96 254
f 95 254 253
f 317 96 95
f 318 253 254
f 96 97 255
f 96 255 254
f 317 97 96
f 318 254 255
f 97 98 256
f 97 256 255
f 317 98 97
f 318 255 256
f 98 99 257
f 98 257 256
f 317 99 98
f 318 256 257
f 99 100 258
f 99 258 257
f 317 100 99
f 318 257 258
f 100 101 259
f 100 259 258
f 317 101 100
f 318 258 259
f 101 102 260
f 101 260 259
f 317 102 101
f 318 259 260
f 102 103 261
f 102 261 260
f 317 103 102
f 318 260 261
f 103 104 262
f 103 262 261
f 317 104 103
f 318 261 262
f 104 105 263
f 104 263 262
f 317 105 104
f 318 262 263
f 105 106 264
f 105 264 263
f 317 106 105
f 318 263 264
f 106 107 265
f 106 265 264
f 317 107 106
f 318 264 265
f 107 108 266
f 107 266 265
f 317 108 107
f 318 265 266
f 108 109 267
f 108 267 266
f 317 109 108
f 318 266 267
f 109 110 268
f 109 268 267
f 317 110 109
f 318 267 268
f 110 111 269
f 110 269 268
f 317 111 110
f 318 268 269
f 111 112 270
f 111 270 269
f 317 112 111
f 318 269 270
f 112 113 271
f 112 271 270
f 317 113 112
f 318 270 271
f 113 114 272
f 113 272 271
f 317 114 113
f 318 271 272
f 114 115 273
f 114 273 272
f 317 115 114
f 318 272 273
f 115 116 274
f 115 274 273
f 317 116 115
f 318 273 274
f 116 117 275
f 116 275 274
f 317 117 116
f 318 274 275
f 117 118 276
f 117 276 275
f 317 118 117
f 318 275 276
f 118 119 277
f 118 277 276
f 317 119 118
f 318 276 277
f 119 120 278
f 119 278 277
f 317 120 119
f 318 277 278
f 120 121 279
f 120 279 278
f 317 121 120
f 318 278 279
f 121 122 280
f 121 280 279
f 317 122 121
f 318 279 280
f 122 123 281
f 122 281 280
f 317 123 122
f 318 280 281
f 123 124 282
f 123 282 281
f 317 124 123
f 318 281 282
f 124 125 283
f 124 283 282
f 317 125 124
f 318 282 283
f 125 126 284
f 125 284 283
f 317 126 125
f 318 283 284
f 126 127 285
f 126 285 284
f 317 127 126
f 318 284 285
f 127 128 286
f 127 286 285
f 317 128 127
f 318 285 286
f 128 129 287
f 128 287 286
f 317 129 128
f 318 286 287
f 129 130 288
f 129 288 287
f 317 130 129
f 318 287 288
f 130 131 289
f 130 289 288
f 317 131 130
f 318 288 289
f 131 132 290
f 131 290 289
f 317 132 131
f 318 289 290
f 132 133 291
f 132 291 290
f 317 133 132
f 318 290 291
f 133 134 292
f 133 292 291
f 317 134 133
f 318 291 292
f 134 135 293
f 134 293 292
f 317 135 134
f 318 292 293
f 135 136 294
f 135 294 293
f 317 136 135
f 318 293 294
f 136 137 295
f 136 295 294
f 317 137 136
f 318 294 295
f 137 138 296
f 137 296 295
f 317 138 137
f 318 295 296
f 138 139 297
f 138 297 296
f 317 139 138
f 318 296 297
f 139 140 298
f 139 298 297
f 317 140 139
f 318 297 298
f 140 141 299
f 140 299 298
f 317 141 140
f 318 298 299
f 141 142 300
f 141 300 299
f 317 142 141
f 318 299 300
f 142 143 301
f 142 301 300
f 317 143 142
f 318 300 301
f 143 144 302
f 143 302 301
f 317 144 143
f 318 301 302
f 144 145 303
f 144 303 302
f 317 145 144
f 318 302 303
f 145 146 304
f 145 304 303
f 317 146 145
f 318 303 304
f 146 147 305
f 146 305 304
f 317 147 146
f 318 304 305
f 147 148 306
f 147 306 305
f 317 148 147
f 318 305 306
f 148 149 307
f 148 307 306
f 317 149 148
f 318 306 307
f 149 150 308
f 149 308 307
f 317 150 149
f 318 307 308
f 150 151 309
f 150 309 308
f 317 151 150
f 318 308 309
f 151 152 310
f 151 310 309
f 317 152 151
f 318 309 310
f 152 153 311
f 152 311 310
f 317 153 152
f 318 310 311
f 153 154 312
f 153 312 311
f 317 154 153
f 318 311 312
f 154 155 313
f 154 313 312
f 317 155 154
f 318 312 313
f 155 156 314
f 155 314 313
f 317 156 155
f 318 313 314
f 156 157 315
f 156 315 314
f 317 157 156
f 318 314 315
f 157 158 316
f 157 316 315
f 317 158 157
f 318 315 316
f 158 1 159
f 158 159 316
f 317 1 158
f 318 316 159
f 320 322 319
f 323 320 319
f 319 322 321
f 321 323 319
f 320 326 322
f 324 320 323
f 324 326 320
f 322 326 321
f 325 323 321
f 321 326 325
f 325 324 323
f 326 324 325

