0
SECTION
2
HEADER
0
ENDSEC
0
SECTION
2
ENTITIES
0
LINE
8
AXIS
10
-32000.000000
20
0.000000
30
0.0
11
31000.000000
21
0.000000
31
0.0
0
LINE
8
SPINE
10
-21000.000000
20
-900.000000
30
0.0
11
-21000.000000
21
900.000000
31
0.0
0
LINE
8
SPINE
10
21000.000000
20
-900.000000
30
0.0
11
21000.000000
21
900.000000
31
0.0
0
LINE
8
SPINE
10
-21000.000000
20
-900.000000
30
0.0
11
21000.000000
21
-900.000000
31
0.0
0
LINE
8
SPINE
10
-21000.000000
20
900.000000
30
0.0
11
21000.000000
21
900.000000
31
0.0
0
LINE
8
RINGS
10
-4100.000000
20
-13000.000000
30
0.0
11
-4100.000000
21
13000.000000
31
0.0
0
LINE
8
RINGS
10
-900.000000
20
-13000.000000
30
0.0
11
-900.000000
21
13000.000000
31
0.0
0
LINE
8
RINGS
10
-4100.000000
20
-13000.000000
30
0.0
11
-900.000000
21
-13000.000000
31
0.0
0
LINE
8
RINGS
10
-4100.000000
20
13000.000000
30
0.0
11
-900.000000
21
13000.000000
31
0.0
0
LINE
8
RINGS
10
900.000000
20
-13000.000000
30
0.0
11
900.000000
21
13000.000000
31
0.0
0
LINE
8
RINGS
10
4100.000000
20
-13000.000000
30
0.0
11
4100.000000
21
13000.000000
31
0.0
0
LINE
8
RINGS
10
900.000000
20
-13000.000000
30
0.0
11
4100.000000
21
-13000.000000
31
0.0
0
LINE
8
RINGS
10
900.000000
20
13000.000000
30
0.0
11
4100.000000
21
13000.000000
31
0.0
0
LINE
8
SOLAR
10
6900.000000
20
1200.000000
30
0.0
11
11100.000000
21
1200.000000
31
0.0
0
LINE
8
SOLAR
10
11100.000000
20
1200.000000
30
0.0
11
11100.000000
21
29000.000000
31
0.0
0
LINE
8
SOLAR
10
11100.000000
20
29000.000000
30
0.0
11
6900.000000
21
29000.000000
31
0.0
0
LINE
8
SOLAR
10
6900.000000
20
29000.000000
30
0.0
11
6900.000000
21
1200.000000
31
0.0
0
LINE
8
SOLAR
10
6900.000000
20
-1200.000000
30
0.0
11
11100.000000
21
-1200.000000
31
0.0
0
LINE
8
SOLAR
10
11100.000000
20
-1200.000000
30
0.0
11
11100.000000
21
-29000.000000
31
0.0
0
LINE
8
SOLAR
10
11100.000000
20
-29000.000000
30
0.0
11
6900.000000
21
-29000.000000
31
0.0
0
LINE
8
SOLAR
10
6900.000000
20
-29000.000000
30
0.0
11
6900.000000
21
-1200.000000
31
0.0
0
LINE
8
SKIMMER
10
21000.000000
20
0.000000
30
0.0
11
22200.000000
21
900.000000
31
0.0
0
LINE
8
SKIMMER
10
22200.000000
20
900.000000
30
0.0
11
25200.000000
21
2750.000000
31
0.0
0
LINE
8
SKIMMER
10
25200.000000
20
2750.000000
30
0.0
11
27500.000000
21
2200.000000
31
0.0
0
LINE
8
SKIMMER
10
27500.000000
20
2200.000000
30
0.0
11
29000.000000
21
900.000000
31
0.0
0
LINE
8
SKIMMER
10
29000.000000
20
900.000000
30
0.0
11
29000.000000
21
-900.000000
31
0.0
0
LINE
8
SKIMMER
10
29000.000000
20
-900.000000
30
0.0
11
27500.000000
21
-2200.000000
31
0.0
0
LINE
8
SKIMMER
10
27500.000000
20
-2200.000000
30
0.0
11
25200.000000
21
-2750.000000
31
0.0
0
LINE
8
SKIMMER
10
25200.000000
20
-2750.000000
30
0.0
11
22200.000000
21
-900.000000
31
0.0
0
LINE
8
SKIMMER
10
22200.000000
20
-900.000000
30
0.0
11
21000.000000
21
0.000000
31
0.0
0
ENDSEC
0
EOF
