0
SECTION
2
HEADER
0
ENDSEC
0
SECTION
2
ENTITIES
0
LINE
8
AXIS
10
-32000.000000
20
0.000000
30
0.0
11
32000.000000
21
0.000000
31
0.0
0
LINE
8
AXIS
10
0.000000
20
-32000.000000
30
0.0
11
0.000000
21
32000.000000
31
0.0
0
CIRCLE
8
RING_OUTER
10
0.000000
20
0.000000
30
0.0
40
13000.000000
0
CIRCLE
8
RING_INNER
10
0.000000
20
0.000000
30
0.0
40
11000.000000
0
CIRCLE
8
SPINE
10
0.000000
20
0.000000
30
0.0
40
900.000000
0
LINE
8
SOLAR
10
1200.000000
20
-2100.000000
30
0.0
11
29000.000000
21
-2100.000000
31
0.0
0
LINE
8
SOLAR
10
29000.000000
20
-2100.000000
30
0.0
11
29000.000000
21
2100.000000
31
0.0
0
LINE
8
SOLAR
10
29000.000000
20
2100.000000
30
0.0
11
1200.000000
21
2100.000000
31
0.0
0
LINE
8
SOLAR
10
1200.000000
20
2100.000000
30
0.0
11
1200.000000
21
-2100.000000
31
0.0
0
LINE
8
SOLAR
10
-1200.000000
20
-2100.000000
30
0.0
11
-29000.000000
21
-2100.000000
31
0.0
0
LINE
8
SOLAR
10
-29000.000000
20
-2100.000000
30
0.0
11
-29000.000000
21
2100.000000
31
0.0
0
LINE
8
SOLAR
10
-29000.000000
20
2100.000000
30
0.0
11
-1200.000000
21
2100.000000
31
0.0
0
LINE
8
SOLAR
10
-1200.000000
20
2100.000000
30
0.0
11
-1200.000000
21
-2100.000000
31
0.0
0
LINE
8
SOLAR
10
-2100.000000
20
1200.000000
30
0.0
11
-2100.000000
21
29000.000000
31
0.0
0
LINE
8
SOLAR
10
-2100.000000
20
29000.000000
30
0.0
11
2100.000000
21
29000.000000
31
0.0
0
LINE
8
SOLAR
10
2100.000000
20
29000.000000
30
0.0
11
2100.000000
21
1200.000000
31
0.0
0
LINE
8
SOLAR
10
2100.000000
20
1200.000000
30
0.0
11
-2100.000000
21
1200.000000
31
0.0
0
LINE
8
SOLAR
10
-2100.000000
20
-1200.000000
30
0.0
11
-2100.000000
21
-29000.000000
31
0.0
0
LINE
8
SOLAR
10
-2100.000000
20
-29000.000000
30
0.0
11
2100.000000
21
-29000.000000
31
0.0
0
LINE
8
SOLAR
10
2100.000000
20
-29000.000000
30
0.0
11
2100.000000
21
-1200.000000
31
0.0
0
LINE
8
SOLAR
10
2100.000000
20
-1200.000000
30
0.0
11
-2100.000000
21
-1200.000000
31
0.0
0
ENDSEC
0
EOF
