0
SECTION
2
HEADER
0
ENDSEC
0
SECTION
2
ENTITIES
0
LINE
8
PROFILE
10
-110.0000
20
0.0000
30
0
11
-106.2712
21
4.8072
31
0
0
LINE
8
PROFILE
10
-106.2712
20
4.8072
30
0
11
-102.5424
21
6.5999
31
0
0
LINE
8
PROFILE
10
-102.5424
20
6.5999
30
0
11
-98.8136
21
7.8764
31
0
0
LINE
8
PROFILE
10
-98.8136
20
7.8764
30
0
11
-95.0847
21
8.8749
31
0
0
LINE
8
PROFILE
10
-95.0847
20
8.8749
30
0
11
-91.3559
21
9.6882
31
0
0
LINE
8
PROFILE
10
-91.3559
20
9.6882
30
0
11
-87.6271
21
10.3645
31
0
0
LINE
8
PROFILE
10
-87.6271
20
10.3645
30
0
11
-83.8983
21
10.9326
31
0
0
LINE
8
PROFILE
10
-83.8983
20
10.9326
30
0
11
-80.1695
21
11.4118
31
0
0
LINE
8
PROFILE
10
-80.1695
20
11.4118
30
0
11
-76.4407
21
11.8155
31
0
0
LINE
8
PROFILE
10
-76.4407
20
11.8155
30
0
11
-72.7119
21
12.1540
31
0
0
LINE
8
PROFILE
10
-72.7119
20
12.1540
30
0
11
-68.9831
21
12.4350
31
0
0
LINE
8
PROFILE
10
-68.9831
20
12.4350
30
0
11
-65.2542
21
12.6647
31
0
0
LINE
8
PROFILE
10
-65.2542
20
12.6647
30
0
11
-61.5254
21
12.8482
31
0
0
LINE
8
PROFILE
10
-61.5254
20
12.8482
30
0
11
-57.7966
21
12.9898
31
0
0
LINE
8
PROFILE
10
-57.7966
20
12.9898
30
0
11
-54.0678
21
13.0931
31
0
0
LINE
8
PROFILE
10
-54.0678
20
13.0931
30
0
11
-50.3390
21
13.1613
31
0
0
LINE
8
PROFILE
10
-50.3390
20
13.1613
30
0
11
-46.6102
21
13.1969
31
0
0
LINE
8
PROFILE
10
-46.6102
20
13.1969
30
0
11
-42.8814
21
13.2024
31
0
0
LINE
8
PROFILE
10
-42.8814
20
13.2024
30
0
11
-39.1525
21
13.1800
31
0
0
LINE
8
PROFILE
10
-39.1525
20
13.1800
30
0
11
-35.4237
21
13.1316
31
0
0
LINE
8
PROFILE
10
-35.4237
20
13.1316
30
0
11
-31.6949
21
13.0588
31
0
0
LINE
8
PROFILE
10
-31.6949
20
13.0588
30
0
11
-27.9661
21
12.9633
31
0
0
LINE
8
PROFILE
10
-27.9661
20
12.9633
30
0
11
-24.2373
21
12.8464
31
0
0
LINE
8
PROFILE
10
-24.2373
20
12.8464
30
0
11
-20.5085
21
12.7095
31
0
0
LINE
8
PROFILE
10
-20.5085
20
12.7095
30
0
11
-16.7797
21
12.5538
31
0
0
LINE
8
PROFILE
10
-16.7797
20
12.5538
30
0
11
-13.0508
21
12.3803
31
0
0
LINE
8
PROFILE
10
-13.0508
20
12.3803
30
0
11
-9.3220
21
12.1900
31
0
0
LINE
8
PROFILE
10
-9.3220
20
12.1900
30
0
11
-5.5932
21
11.9839
31
0
0
LINE
8
PROFILE
10
-5.5932
20
11.9839
30
0
11
-1.8644
21
11.7628
31
0
0
LINE
8
PROFILE
10
-1.8644
20
11.7628
30
0
11
1.8644
21
11.5275
31
0
0
LINE
8
PROFILE
10
1.8644
20
11.5275
30
0
11
5.5932
21
11.2787
31
0
0
LINE
8
PROFILE
10
5.5932
20
11.2787
30
0
11
9.3220
21
11.0171
31
0
0
LINE
8
PROFILE
10
9.3220
20
11.0171
30
0
11
13.0508
21
10.7433
31
0
0
LINE
8
PROFILE
10
13.0508
20
10.7433
30
0
11
16.7797
21
10.4578
31
0
0
LINE
8
PROFILE
10
16.7797
20
10.4578
30
0
11
20.5085
21
10.1611
31
0
0
LINE
8
PROFILE
10
20.5085
20
10.1611
30
0
11
24.2373
21
9.8537
31
0
0
LINE
8
PROFILE
10
24.2373
20
9.8537
30
0
11
27.9661
21
9.5361
31
0
0
LINE
8
PROFILE
10
27.9661
20
9.5361
30
0
11
31.6949
21
9.2084
31
0
0
LINE
8
PROFILE
10
31.6949
20
9.2084
30
0
11
35.4237
21
8.8712
31
0
0
LINE
8
PROFILE
10
35.4237
20
8.8712
30
0
11
39.1525
21
8.5247
31
0
0
LINE
8
PROFILE
10
39.1525
20
8.5247
30
0
11
42.8814
21
8.1690
31
0
0
LINE
8
PROFILE
10
42.8814
20
8.1690
30
0
11
46.6102
21
7.8045
31
0
0
LINE
8
PROFILE
10
46.6102
20
7.8045
30
0
11
50.3390
21
7.4313
31
0
0
LINE
8
PROFILE
10
50.3390
20
7.4313
30
0
11
54.0678
21
7.0495
31
0
0
LINE
8
PROFILE
10
54.0678
20
7.0495
30
0
11
57.7966
21
6.6592
31
0
0
LINE
8
PROFILE
10
57.7966
20
6.6592
30
0
11
61.5254
21
6.2604
31
0
0
LINE
8
PROFILE
10
61.5254
20
6.2604
30
0
11
65.2542
21
5.8533
31
0
0
LINE
8
PROFILE
10
65.2542
20
5.8533
30
0
11
68.9831
21
5.4378
31
0
0
LINE
8
PROFILE
10
68.9831
20
5.4378
30
0
11
72.7119
21
5.0138
31
0
0
LINE
8
PROFILE
10
72.7119
20
5.0138
30
0
11
76.4407
21
4.5813
31
0
0
LINE
8
PROFILE
10
76.4407
20
4.5813
30
0
11
80.1695
21
4.1401
31
0
0
LINE
8
PROFILE
10
80.1695
20
4.1401
30
0
11
83.8983
21
3.6902
31
0
0
LINE
8
PROFILE
10
83.8983
20
3.6902
30
0
11
87.6271
21
3.2314
31
0
0
LINE
8
PROFILE
10
87.6271
20
3.2314
30
0
11
91.3559
21
2.7634
31
0
0
LINE
8
PROFILE
10
91.3559
20
2.7634
30
0
11
95.0847
21
2.2860
31
0
0
LINE
8
PROFILE
10
95.0847
20
2.2860
30
0
11
98.8136
21
1.7990
31
0
0
LINE
8
PROFILE
10
98.8136
20
1.7990
30
0
11
102.5424
21
1.3021
31
0
0
LINE
8
PROFILE
10
102.5424
20
1.3021
30
0
11
106.2712
21
0.7950
31
0
0
LINE
8
PROFILE
10
106.2712
20
0.7950
30
0
11
110.0000
21
0.2772
31
0
0
LINE
8
PROFILE
10
110.0000
20
0.2772
30
0
11
106.2712
21
-0.7950
31
0
0
LINE
8
PROFILE
10
106.2712
20
-0.7950
30
0
11
102.5424
21
-1.3021
31
0
0
LINE
8
PROFILE
10
102.5424
20
-1.3021
30
0
11
98.8136
21
-1.7990
31
0
0
LINE
8
PROFILE
10
98.8136
20
-1.7990
30
0
11
95.0847
21
-2.2860
31
0
0
LINE
8
PROFILE
10
95.0847
20
-2.2860
30
0
11
91.3559
21
-2.7634
31
0
0
LINE
8
PROFILE
10
91.3559
20
-2.7634
30
0
11
87.6271
21
-3.2314
31
0
0
LINE
8
PROFILE
10
87.6271
20
-3.2314
30
0
11
83.8983
21
-3.6902
31
0
0
LINE
8
PROFILE
10
83.8983
20
-3.6902
30
0
11
80.1695
21
-4.1401
31
0
0
LINE
8
PROFILE
10
80.1695
20
-4.1401
30
0
11
76.4407
21
-4.5813
31
0
0
LINE
8
PROFILE
10
76.4407
20
-4.5813
30
0
11
72.7119
21
-5.0138
31
0
0
LINE
8
PROFILE
10
72.7119
20
-5.0138
30
0
11
68.9831
21
-5.4378
31
0
0
LINE
8
PROFILE
10
68.9831
20
-5.4378
30
0
11
65.2542
21
-5.8533
31
0
0
LINE
8
PROFILE
10
65.2542
20
-5.8533
30
0
11
61.5254
21
-6.2604
31
0
0
LINE
8
PROFILE
10
61.5254
20
-6.2604
30
0
11
57.7966
21
-6.6592
31
0
0
LINE
8
PROFILE
10
57.7966
20
-6.6592
30
0
11
54.0678
21
-7.0495
31
0
0
LINE
8
PROFILE
10
54.0678
20
-7.0495
30
0
11
50.3390
21
-7.4313
31
0
0
LINE
8
PROFILE
10
50.3390
20
-7.4313
30
0
11
46.6102
21
-7.8045
31
0
0
LINE
8
PROFILE
10
46.6102
20
-7.8045
30
0
11
42.8814
21
-8.1690
31
0
0
LINE
8
PROFILE
10
42.8814
20
-8.1690
30
0
11
39.1525
21
-8.5247
31
0
0
LINE
8
PROFILE
10
39.1525
20
-8.5247
30
0
11
35.4237
21
-8.8712
31
0
0
LINE
8
PROFILE
10
35.4237
20
-8.8712
30
0
11
31.6949
21
-9.2084
31
0
0
LINE
8
PROFILE
10
31.6949
20
-9.2084
30
0
11
27.9661
21
-9.5361
31
0
0
LINE
8
PROFILE
10
27.9661
20
-9.5361
30
0
11
24.2373
21
-9.8537
31
0
0
LINE
8
PROFILE
10
24.2373
20
-9.8537
30
0
11
20.5085
21
-10.1611
31
0
0
LINE
8
PROFILE
10
20.5085
20
-10.1611
30
0
11
16.7797
21
-10.4578
31
0
0
LINE
8
PROFILE
10
16.7797
20
-10.4578
30
0
11
13.0508
21
-10.7433
31
0
0
LINE
8
PROFILE
10
13.0508
20
-10.7433
30
0
11
9.3220
21
-11.0171
31
0
0
LINE
8
PROFILE
10
9.3220
20
-11.0171
30
0
11
5.5932
21
-11.2787
31
0
0
LINE
8
PROFILE
10
5.5932
20
-11.2787
30
0
11
1.8644
21
-11.5275
31
0
0
LINE
8
PROFILE
10
1.8644
20
-11.5275
30
0
11
-1.8644
21
-11.7628
31
0
0
LINE
8
PROFILE
10
-1.8644
20
-11.7628
30
0
11
-5.5932
21
-11.9839
31
0
0
LINE
8
PROFILE
10
-5.5932
20
-11.9839
30
0
11
-9.3220
21
-12.1900
31
0
0
LINE
8
PROFILE
10
-9.3220
20
-12.1900
30
0
11
-13.0508
21
-12.3803
31
0
0
LINE
8
PROFILE
10
-13.0508
20
-12.3803
30
0
11
-16.7797
21
-12.5538
31
0
0
LINE
8
PROFILE
10
-16.7797
20
-12.5538
30
0
11
-20.5085
21
-12.7095
31
0
0
LINE
8
PROFILE
10
-20.5085
20
-12.7095
30
0
11
-24.2373
21
-12.8464
31
0
0
LINE
8
PROFILE
10
-24.2373
20
-12.8464
30
0
11
-27.9661
21
-12.9633
31
0
0
LINE
8
PROFILE
10
-27.9661
20
-12.9633
30
0
11
-31.6949
21
-13.0588
31
0
0
LINE
8
PROFILE
10
-31.6949
20
-13.0588
30
0
11
-35.4237
21
-13.1316
31
0
0
LINE
8
PROFILE
10
-35.4237
20
-13.1316
30
0
11
-39.1525
21
-13.1800
31
0
0
LINE
8
PROFILE
10
-39.1525
20
-13.1800
30
0
11
-42.8814
21
-13.2024
31
0
0
LINE
8
PROFILE
10
-42.8814
20
-13.2024
30
0
11
-46.6102
21
-13.1969
31
0
0
LINE
8
PROFILE
10
-46.6102
20
-13.1969
30
0
11
-50.3390
21
-13.1613
31
0
0
LINE
8
PROFILE
10
-50.3390
20
-13.1613
30
0
11
-54.0678
21
-13.0931
31
0
0
LINE
8
PROFILE
10
-54.0678
20
-13.0931
30
0
11
-57.7966
21
-12.9898
31
0
0
LINE
8
PROFILE
10
-57.7966
20
-12.9898
30
0
11
-61.5254
21
-12.8482
31
0
0
LINE
8
PROFILE
10
-61.5254
20
-12.8482
30
0
11
-65.2542
21
-12.6647
31
0
0
LINE
8
PROFILE
10
-65.2542
20
-12.6647
30
0
11
-68.9831
21
-12.4350
31
0
0
LINE
8
PROFILE
10
-68.9831
20
-12.4350
30
0
11
-72.7119
21
-12.1540
31
0
0
LINE
8
PROFILE
10
-72.7119
20
-12.1540
30
0
11
-76.4407
21
-11.8155
31
0
0
LINE
8
PROFILE
10
-76.4407
20
-11.8155
30
0
11
-80.1695
21
-11.4118
31
0
0
LINE
8
PROFILE
10
-80.1695
20
-11.4118
30
0
11
-83.8983
21
-10.9326
31
0
0
LINE
8
PROFILE
10
-83.8983
20
-10.9326
30
0
11
-87.6271
21
-10.3645
31
0
0
LINE
8
PROFILE
10
-87.6271
20
-10.3645
30
0
11
-91.3559
21
-9.6882
31
0
0
LINE
8
PROFILE
10
-91.3559
20
-9.6882
30
0
11
-95.0847
21
-8.8749
31
0
0
LINE
8
PROFILE
10
-95.0847
20
-8.8749
30
0
11
-98.8136
21
-7.8764
31
0
0
LINE
8
PROFILE
10
-98.8136
20
-7.8764
30
0
11
-102.5424
21
-6.5999
31
0
0
LINE
8
PROFILE
10
-102.5424
20
-6.5999
30
0
11
-106.2712
21
-4.8072
31
0
0
LINE
8
PROFILE
10
-106.2712
20
-4.8072
30
0
11
-110.0000
21
0.0000
31
0
0
TEXT
8
TEXT
10
-65.0000
20
-35.0000
30
0
40
6.0000
1
AST-SK-4301 PROFILE
0
ENDSEC
0
EOF
