# https://github.com/mikedh/trimesh
v 0.00000000 75.00000000 0.00000000
v 0.00000000 74.83941924 3.92418775
v 0.00000000 74.35836460 7.83157153
v 0.00000000 73.55889603 11.70541932
v 0.00000000 72.44443697 15.52914271
v 0.00000000 71.01975971 19.28636792
v 0.00000000 69.29096494 22.96100594
v 0.00000000 67.26545561 26.53732141
v 0.00000000 64.95190528 30.00000000
v 0.00000000 62.36022092 33.33421398
v 0.00000000 59.50150052 36.52568574
v 0.00000000 56.38798556 39.56074891
v 0.00000000 53.03300859 42.42640687
v 0.00000000 49.45093613 45.11038845
v 0.00000000 45.65710718 47.60120042
v 0.00000000 41.66776748 49.88817674
v 0.00000000 37.50000000 51.96152423
v 0.00000000 33.17165177 53.81236449
v 0.00000000 28.70125743 55.43277195
v 0.00000000 24.10795990 56.81580777
v 0.00000000 19.41142838 57.95554958
v 0.00000000 14.63177415 58.84711682
v 0.00000000 9.78946442 59.48669168
v 0.00000000 4.90523469 59.87153539
v 0.00000000 0.00000000 60.00000000
v 0.00000000 -4.90523469 59.87153539
v 0.00000000 -9.78946442 59.48669168
v 0.00000000 -14.63177415 58.84711682
v 0.00000000 -19.41142838 57.95554958
v 0.00000000 -24.10795990 56.81580777
v 0.00000000 -28.70125743 55.43277195
v 0.00000000 -33.17165177 53.81236449
v 0.00000000 -37.50000000 51.96152423
v 0.00000000 -41.66776748 49.88817674
v 0.00000000 -45.65710718 47.60120042
v 0.00000000 -49.45093613 45.11038845
v 0.00000000 -53.03300859 42.42640687
v 0.00000000 -56.38798556 39.56074891
v 0.00000000 -59.50150052 36.52568574
v 0.00000000 -62.36022092 33.33421398
v 0.00000000 -64.95190528 30.00000000
v 0.00000000 -67.26545561 26.53732141
v 0.00000000 -69.29096494 22.96100594
v 0.00000000 -71.01975971 19.28636792
v 0.00000000 -72.44443697 15.52914271
v 0.00000000 -73.55889603 11.70541932
v 0.00000000 -74.35836460 7.83157153
v 0.00000000 -74.83941924 3.92418775
v 0.00000000 -75.00000000 0.00000000
v 0.00000000 -74.83941924 -3.92418775
v 0.00000000 -74.35836460 -7.83157153
v 0.00000000 -73.55889603 -11.70541932
v 0.00000000 -72.44443697 -15.52914271
v 0.00000000 -71.01975971 -19.28636792
v 0.00000000 -69.29096494 -22.96100594
v 0.00000000 -67.26545561 -26.53732141
v 0.00000000 -64.95190528 -30.00000000
v 0.00000000 -62.36022092 -33.33421398
v 0.00000000 -59.50150052 -36.52568574
v 0.00000000 -56.38798556 -39.56074891
v 0.00000000 -53.03300859 -42.42640687
v 0.00000000 -49.45093613 -45.11038845
v 0.00000000 -45.65710718 -47.60120042
v 0.00000000 -41.66776748 -49.88817674
v 0.00000000 -37.50000000 -51.96152423
v 0.00000000 -33.17165177 -53.81236449
v 0.00000000 -28.70125743 -55.43277195
v 0.00000000 -24.10795990 -56.81580777
v 0.00000000 -19.41142838 -57.95554958
v 0.00000000 -14.63177415 -58.84711682
v 0.00000000 -9.78946442 -59.48669168
v 0.00000000 -4.90523469 -59.87153539
v 0.00000000 -0.00000000 -60.00000000
v 0.00000000 4.90523469 -59.87153539
v 0.00000000 9.78946442 -59.48669168
v 0.00000000 14.63177415 -58.84711682
v 0.00000000 19.41142838 -57.95554958
v 0.00000000 24.10795990 -56.81580777
v 0.00000000 28.70125743 -55.43277195
v 0.00000000 33.17165177 -53.81236449
v 0.00000000 37.50000000 -51.96152423
v 0.00000000 41.66776748 -49.88817674
v 0.00000000 45.65710718 -47.60120042
v 0.00000000 49.45093613 -45.11038845
v 0.00000000 53.03300859 -42.42640687
v 0.00000000 56.38798556 -39.56074891
v 0.00000000 59.50150052 -36.52568574
v 0.00000000 62.36022092 -33.33421398
v 0.00000000 64.95190528 -30.00000000
v 0.00000000 67.26545561 -26.53732141
v 0.00000000 69.29096494 -22.96100594
v 0.00000000 71.01975971 -19.28636792
v 0.00000000 72.44443697 -15.52914271
v 0.00000000 73.55889603 -11.70541932
v 0.00000000 74.35836460 -7.83157153
v 0.00000000 74.83941924 -3.92418775
v 600.00000000 600.00000000 50.00000000
v 600.00000000 598.71535394 67.98586054
v 600.00000000 594.86691682 85.89470286
v 600.00000000 588.47116824 103.64983855
v 600.00000000 579.55549577 121.17523740
v 600.00000000 568.15807770 138.39585296
v 600.00000000 554.32771951 155.23794390
v 600.00000000 538.12364492 171.62938981
v 600.00000000 519.61524227 187.50000000
v 600.00000000 498.88176738 202.78181408
v 600.00000000 476.01200417 217.40939298
v 600.00000000 451.10388449 231.32009915
v 600.00000000 424.26406871 244.45436483
v 600.00000000 395.60748906 256.75594706
v 600.00000000 365.25685741 268.17216858
v 600.00000000 333.34213981 278.65414338
v 600.00000000 300.00000000 288.15698604
v 600.00000000 265.37321413 296.64000392
v 600.00000000 229.61005942 304.06687144
v 600.00000000 192.86367918 310.40578561
v 600.00000000 155.29142706 315.62960223
v 600.00000000 117.05419321 319.71595211
v 600.00000000 78.31571533 322.64733688
v 600.00000000 39.24187754 324.41120389
v 600.00000000 0.00000000 325.00000000
v 600.00000000 -39.24187754 324.41120389
v 600.00000000 -78.31571533 322.64733688
v 600.00000000 -117.05419321 319.71595211
v 600.00000000 -155.29142706 315.62960223
v 600.00000000 -192.86367918 310.40578561
v 600.00000000 -229.61005942 304.06687144
v 600.00000000 -265.37321413 296.64000392
v 600.00000000 -300.00000000 288.15698604
v 600.00000000 -333.34213981 278.65414338
v 600.00000000 -365.25685741 268.17216858
v 600.00000000 -395.60748906 256.75594706
v 600.00000000 -424.26406871 244.45436483
v 600.00000000 -451.10388449 231.32009915
v 600.00000000 -476.01200417 217.40939298
v 600.00000000 -498.88176738 202.78181408
v 600.00000000 -519.61524227 187.50000000
v 600.00000000 -538.12364492 171.62938981
v 600.00000000 -554.32771951 155.23794390
v 600.00000000 -568.15807770 138.39585296
v 600.00000000 -579.55549577 121.17523740
v 600.00000000 -588.47116824 103.64983855
v 600.00000000 -594.86691682 85.89470286
v 600.00000000 -598.71535394 67.98586054
v 600.00000000 -600.00000000 50.00000000
v 600.00000000 -598.71535394 32.01413946
v 600.00000000 -594.86691682 14.10529714
v 600.00000000 -588.47116824 -3.64983855
v 600.00000000 -579.55549577 -21.17523740
v 600.00000000 -568.15807770 -38.39585296
v 600.00000000 -554.32771951 -55.23794390
v 600.00000000 -538.12364492 -71.62938981
v 600.00000000 -519.61524227 -87.50000000
v 600.00000000 -498.88176738 -102.78181408
v 600.00000000 -476.01200417 -117.40939298
v 600.00000000 -451.10388449 -131.32009915
v 600.00000000 -424.26406871 -144.45436483
v 600.00000000 -395.60748906 -156.75594706
v 600.00000000 -365.25685741 -168.17216858
v 600.00000000 -333.34213981 -178.65414338
v 600.00000000 -300.00000000 -188.15698604
v 600.00000000 -265.37321413 -196.64000392
v 600.00000000 -229.61005942 -204.06687144
v 600.00000000 -192.86367918 -210.40578561
v 600.00000000 -155.29142706 -215.62960223
v 600.00000000 -117.05419321 -219.71595211
v 600.00000000 -78.31571533 -222.64733688
v 600.00000000 -39.24187754 -224.41120389
v 600.00000000 -0.00000000 -225.00000000
v 600.00000000 39.24187754 -224.41120389
v 600.00000000 78.31571533 -222.64733688
v 600.00000000 117.05419321 -219.71595211
v 600.00000000 155.29142706 -215.62960223
v 600.00000000 192.86367918 -210.40578561
v 600.00000000 229.61005942 -204.06687144
v 600.00000000 265.37321413 -196.64000392
v 600.00000000 300.00000000 -188.15698604
v 600.00000000 333.34213981 -178.65414338
v 600.00000000 365.25685741 -168.17216858
v 600.00000000 395.60748906 -156.75594706
v 600.00000000 424.26406871 -144.45436483
v 600.00000000 451.10388449 -131.32009915
v 600.00000000 476.01200417 -117.40939298
v 600.00000000 498.88176738 -102.78181408
v 600.00000000 519.61524227 -87.50000000
v 600.00000000 538.12364492 -71.62938981
v 600.00000000 554.32771951 -55.23794390
v 600.00000000 568.15807770 -38.39585296
v 600.00000000 579.55549577 -21.17523740
v 600.00000000 588.47116824 -3.64983855
v 600.00000000 594.86691682 14.10529714
v 600.00000000 598.71535394 32.01413946
v 1800.00000000 1800.00000000 100.00000000
v 1800.00000000 1796.14606183 137.60679931
v 1800.00000000 1784.60075047 175.05256053
v 1800.00000000 1765.41350473 212.17693516
v 1800.00000000 1738.66648732 248.82095093
v 1800.00000000 1704.47423309 284.82769255
v 1800.00000000 1662.98315852 320.04297361
v 1800.00000000 1614.37093476 354.31599688
v 1800.00000000 1558.84572681 387.50000000
v 1800.00000000 1496.64530214 419.45288399
v 1800.00000000 1428.03601252 450.03782168
v 1800.00000000 1353.31165346 479.12384368
v 1800.00000000 1272.79220614 506.58639918
v 1800.00000000 1186.82246718 532.30788930
v 1800.00000000 1095.77057222 556.17817067
v 1800.00000000 1000.02641944 578.09502707
v 1800.00000000 900.00000000 597.96460718
v 1800.00000000 796.11964239 615.70182638
v 1800.00000000 688.83017826 631.23073119
v 1800.00000000 578.59103755 644.48482446
v 1800.00000000 465.87428118 655.40735012
v 1800.00000000 351.16257963 663.95153623
v 1800.00000000 234.94714600 670.08079529
v 1800.00000000 117.72563261 673.76888086
v 1800.00000000 0.00000000 675.00000000
v 1800.00000000 -117.72563261 673.76888086
v 1800.00000000 -234.94714600 670.08079529
v 1800.00000000 -351.16257963 663.95153623
v 1800.00000000 -465.87428118 655.40735012
v 1800.00000000 -578.59103755 644.48482446
v 1800.00000000 -688.83017826 631.23073119
v 1800.00000000 -796.11964239 615.70182638
v 1800.00000000 -900.00000000 597.96460718
v 1800.00000000 -1000.02641944 578.09502707
v 1800.00000000 -1095.77057222 556.17817067
v 1800.00000000 -1186.82246718 532.30788930
v 1800.00000000 -1272.79220614 506.58639918
v 1800.00000000 -1353.31165346 479.12384368
v 1800.00000000 -1428.03601252 450.03782168
v 1800.00000000 -1496.64530214 419.45288399
v 1800.00000000 -1558.84572681 387.50000000
v 1800.00000000 -1614.37093476 354.31599688
v 1800.00000000 -1662.98315852 320.04297361
v 1800.00000000 -1704.47423309 284.82769255
v 1800.00000000 -1738.66648732 248.82095093
v 1800.00000000 -1765.41350473 212.17693516
v 1800.00000000 -1784.60075047 175.05256053
v 1800.00000000 -1796.14606183 137.60679931
v 1800.00000000 -1800.00000000 100.00000000
v 1800.00000000 -1796.14606183 62.39320069
v 1800.00000000 -1784.60075047 24.94743947
v 1800.00000000 -1765.41350473 -12.17693516
v 1800.00000000 -1738.66648732 -48.82095093
v 1800.00000000 -1704.47423309 -84.82769255
v 1800.00000000 -1662.98315852 -120.04297361
v 1800.00000000 -1614.37093476 -154.31599688
v 1800.00000000 -1558.84572681 -187.50000000
v 1800.00000000 -1496.64530214 -219.45288399
v 1800.00000000 -1428.03601252 -250.03782168
v 1800.00000000 -1353.31165346 -279.12384368
v 1800.00000000 -1272.79220614 -306.58639918
v 1800.00000000 -1186.82246718 -332.30788930
v 1800.00000000 -1095.77057222 -356.17817067
v 1800.00000000 -1000.02641944 -378.09502707
v 1800.00000000 -900.00000000 -397.96460718
v 1800.00000000 -796.11964239 -415.70182638
v 1800.00000000 -688.83017826 -431.23073119
v 1800.00000000 -578.59103755 -444.48482446
v 1800.00000000 -465.87428118 -455.40735012
v 1800.00000000 -351.16257963 -463.95153623
v 1800.00000000 -234.94714600 -470.08079529
v 1800.00000000 -117.72563261 -473.76888086
v 1800.00000000 -0.00000000 -475.00000000
v 1800.00000000 117.72563261 -473.76888086
v 1800.00000000 234.94714600 -470.08079529
v 1800.00000000 351.16257963 -463.95153623
v 1800.00000000 465.87428118 -455.40735012
v 1800.00000000 578.59103755 -444.48482446
v 1800.00000000 688.83017826 -431.23073119
v 1800.00000000 796.11964239 -415.70182638
v 1800.00000000 900.00000000 -397.96460718
v 1800.00000000 1000.02641944 -378.09502707
v 1800.00000000 1095.77057222 -356.17817067
v 1800.00000000 1186.82246718 -332.30788930
v 1800.00000000 1272.79220614 -306.58639918
v 1800.00000000 1353.31165346 -279.12384368
v 1800.00000000 1428.03601252 -250.03782168
v 1800.00000000 1496.64530214 -219.45288399
v 1800.00000000 1558.84572681 -187.50000000
v 1800.00000000 1614.37093476 -154.31599688
v 1800.00000000 1662.98315852 -120.04297361
v 1800.00000000 1704.47423309 -84.82769255
v 1800.00000000 1738.66648732 -48.82095093
v 1800.00000000 1765.41350473 -12.17693516
v 1800.00000000 1784.60075047 24.94743947
v 1800.00000000 1796.14606183 62.39320069
v 3500.00000000 2750.00000000 120.00000000
v 3500.00000000 2744.11203891 172.32250338
v 3500.00000000 2726.47336878 224.42095378
v 3500.00000000 2697.15952111 276.07225761
v 3500.00000000 2656.29602229 327.05523608
v 3500.00000000 2604.05785611 377.15157224
v 3500.00000000 2540.66871441 426.14674589
v 3500.00000000 2466.40003921 473.83095218
v 3500.00000000 2381.56986041 520.00000000
v 3500.00000000 2286.54143383 564.45618642
v 3500.00000000 2181.72168580 607.00914321
v 3500.00000000 2067.55947057 647.47665208
v 3500.00000000 1944.54364826 685.68542495
v 3500.00000000 1813.20099153 721.47184598
v 3500.00000000 1674.09392977 754.68267223
v 3500.00000000 1527.81814080 785.17568984
v 3500.00000000 1375.00000000 812.82032303
v 3500.00000000 1216.29389810 837.49819323
v 3500.00000000 1052.37943900 859.10362601
v 3500.00000000 883.95852958 877.54410360
v 3500.00000000 711.75237403 892.74066103
v 3500.00000000 536.49838554 904.62822432
v 3500.00000000 358.94702861 913.15588910
v 3500.00000000 179.85860538 918.28713859
v 3500.00000000 0.00000000 920.00000000
v 3500.00000000 -179.85860538 918.28713859
v 3500.00000000 -358.94702861 913.15588910
v 3500.00000000 -536.49838554 904.62822432
v 3500.00000000 -711.75237403 892.74066103
v 3500.00000000 -883.95852958 877.54410360
v 3500.00000000 -1052.37943900 859.10362601
v 3500.00000000 -1216.29389810 837.49819323
v 3500.00000000 -1375.00000000 812.82032303
v 3500.00000000 -1527.81814080 785.17568984
v 3500.00000000 -1674.09392977 754.68267223
v 3500.00000000 -1813.20099153 721.47184598
v 3500.00000000 -1944.54364826 685.68542495
v 3500.00000000 -2067.55947057 647.47665208
v 3500.00000000 -2181.72168580 607.00914321
v 3500.00000000 -2286.54143383 564.45618642
v 3500.00000000 -2381.56986041 520.00000000
v 3500.00000000 -2466.40003921 473.83095218
v 3500.00000000 -2540.66871441 426.14674589
v 3500.00000000 -2604.05785611 377.15157224
v 3500.00000000 -2656.29602229 327.05523608
v 3500.00000000 -2697.15952111 276.07225761
v 3500.00000000 -2726.47336878 224.42095378
v 3500.00000000 -2744.11203891 172.32250338
v 3500.00000000 -2750.00000000 120.00000000
v 3500.00000000 -2744.11203891 67.67749662
v 3500.00000000 -2726.47336878 15.57904622
v 3500.00000000 -2697.15952111 -36.07225761
v 3500.00000000 -2656.29602229 -87.05523608
v 3500.00000000 -2604.05785611 -137.15157224
v 3500.00000000 -2540.66871441 -186.14674589
v 3500.00000000 -2466.40003921 -233.83095218
v 3500.00000000 -2381.56986041 -280.00000000
v 3500.00000000 -2286.54143383 -324.45618642
v 3500.00000000 -2181.72168580 -367.00914321
v 3500.00000000 -2067.55947057 -407.47665208
v 3500.00000000 -1944.54364826 -445.68542495
v 3500.00000000 -1813.20099153 -481.47184598
v 3500.00000000 -1674.09392977 -514.68267223
v 3500.00000000 -1527.81814080 -545.17568984
v 3500.00000000 -1375.00000000 -572.82032303
v 3500.00000000 -1216.29389810 -597.49819323
v 3500.00000000 -1052.37943900 -619.10362601
v 3500.00000000 -883.95852958 -637.54410360
v 3500.00000000 -711.75237403 -652.74066103
v 3500.00000000 -536.49838554 -664.62822432
v 3500.00000000 -358.94702861 -673.15588910
v 3500.00000000 -179.85860538 -678.28713859
v 3500.00000000 -0.00000000 -680.00000000
v 3500.00000000 179.85860538 -678.28713859
v 3500.00000000 358.94702861 -673.15588910
v 3500.00000000 536.49838554 -664.62822432
v 3500.00000000 711.75237403 -652.74066103
v 3500.00000000 883.95852958 -637.54410360
v 3500.00000000 1052.37943900 -619.10362601
v 3500.00000000 1216.29389810 -597.49819323
v 3500.00000000 1375.00000000 -572.82032303
v 3500.00000000 1527.81814080 -545.17568984
v 3500.00000000 1674.09392977 -514.68267223
v 3500.00000000 1813.20099153 -481.47184598
v 3500.00000000 1944.54364826 -445.68542495
v 3500.00000000 2067.55947057 -407.47665208
v 3500.00000000 2181.72168580 -367.00914321
v 3500.00000000 2286.54143383 -324.45618642
v 3500.00000000 2381.56986041 -280.00000000
v 3500.00000000 2466.40003921 -233.83095218
v 3500.00000000 2540.66871441 -186.14674589
v 3500.00000000 2604.05785611 -137.15157224
v 3500.00000000 2656.29602229 -87.05523608
v 3500.00000000 2697.15952111 -36.07225761
v 3500.00000000 2726.47336878 15.57904622
v 3500.00000000 2744.11203891 67.67749662
v 5500.00000000 2400.00000000 80.00000000
v 5500.00000000 2394.86141577 120.87695577
v 5500.00000000 2379.46766730 161.57887014
v 5500.00000000 2353.88467297 201.93145126
v 5500.00000000 2318.22198309 241.76190319
v 5500.00000000 2272.63231079 280.89966581
v 5500.00000000 2217.31087803 319.17714523
v 5500.00000000 2152.49457968 356.43043139
v 5500.00000000 2078.46096908 392.50000000
v 5500.00000000 1995.52706953 427.23139564
v 5500.00000000 1904.04801670 460.47589313
v 5500.00000000 1804.41553795 492.09113444
v 5500.00000000 1697.05627485 521.94173824
v 5500.00000000 1582.42995624 549.89987967
v 5500.00000000 1461.02742962 575.84583768
v 5500.00000000 1333.36855925 599.66850769
v 5500.00000000 1200.00000000 621.26587737
v 5500.00000000 1061.49285653 640.54546346
v 5500.00000000 918.44023768 657.42470782
v 5500.00000000 771.45471673 671.83133093
v 5500.00000000 621.16570825 683.70364143
v 5500.00000000 468.21677284 692.99080025
v 5500.00000000 313.26286133 699.65303836
v 5500.00000000 156.96751015 703.66182702
v 5500.00000000 0.00000000 705.00000000
v 5500.00000000 -156.96751015 703.66182702
v 5500.00000000 -313.26286133 699.65303836
v 5500.00000000 -468.21677284 692.99080025
v 5500.00000000 -621.16570825 683.70364143
v 5500.00000000 -771.45471673 671.83133093
v 5500.00000000 -918.44023768 657.42470782
v 5500.00000000 -1061.49285653 640.54546346
v 5500.00000000 -1200.00000000 621.26587737
v 5500.00000000 -1333.36855925 599.66850769
v 5500.00000000 -1461.02742962 575.84583768
v 5500.00000000 -1582.42995624 549.89987967
v 5500.00000000 -1697.05627485 521.94173824
v 5500.00000000 -1804.41553795 492.09113444
v 5500.00000000 -1904.04801670 460.47589313
v 5500.00000000 -1995.52706953 427.23139564
v 5500.00000000 -2078.46096908 392.50000000
v 5500.00000000 -2152.49457968 356.43043139
v 5500.00000000 -2217.31087803 319.17714523
v 5500.00000000 -2272.63231079 280.89966581
v 5500.00000000 -2318.22198309 241.76190319
v 5500.00000000 -2353.88467297 201.93145126
v 5500.00000000 -2379.46766730 161.57887014
v 5500.00000000 -2394.86141577 120.87695577
v 5500.00000000 -2400.00000000 80.00000000
v 5500.00000000 -2394.86141577 39.12304423
v 5500.00000000 -2379.46766730 -1.57887014
v 5500.00000000 -2353.88467297 -41.93145126
v 5500.00000000 -2318.22198309 -81.76190319
v 5500.00000000 -2272.63231079 -120.89966581
v 5500.00000000 -2217.31087803 -159.17714523
v 5500.00000000 -2152.49457968 -196.43043139
v 5500.00000000 -2078.46096908 -232.50000000
v 5500.00000000 -1995.52706953 -267.23139564
v 5500.00000000 -1904.04801670 -300.47589313
v 5500.00000000 -1804.41553795 -332.09113444
v 5500.00000000 -1697.05627485 -361.94173824
v 5500.00000000 -1582.42995624 -389.89987967
v 5500.00000000 -1461.02742962 -415.84583768
v 5500.00000000 -1333.36855925 -439.66850769
v 5500.00000000 -1200.00000000 -461.26587737
v 5500.00000000 -1061.49285653 -480.54546346
v 5500.00000000 -918.44023768 -497.42470782
v 5500.00000000 -771.45471673 -511.83133093
v 5500.00000000 -621.16570825 -523.70364143
v 5500.00000000 -468.21677284 -532.99080025
v 5500.00000000 -313.26286133 -539.65303836
v 5500.00000000 -156.96751015 -543.66182702
v 5500.00000000 -0.00000000 -545.00000000
v 5500.00000000 156.96751015 -543.66182702
v 5500.00000000 313.26286133 -539.65303836
v 5500.00000000 468.21677284 -532.99080025
v 5500.00000000 621.16570825 -523.70364143
v 5500.00000000 771.45471673 -511.83133093
v 5500.00000000 918.44023768 -497.42470782
v 5500.00000000 1061.49285653 -480.54546346
v 5500.00000000 1200.00000000 -461.26587737
v 5500.00000000 1333.36855925 -439.66850769
v 5500.00000000 1461.02742962 -415.84583768
v 5500.00000000 1582.42995624 -389.89987967
v 5500.00000000 1697.05627485 -361.94173824
v 5500.00000000 1804.41553795 -332.09113444
v 5500.00000000 1904.04801670 -300.47589313
v 5500.00000000 1995.52706953 -267.23139564
v 5500.00000000 2078.46096908 -232.50000000
v 5500.00000000 2152.49457968 -196.43043139
v 5500.00000000 2217.31087803 -159.17714523
v 5500.00000000 2272.63231079 -120.89966581
v 5500.00000000 2318.22198309 -81.76190319
v 5500.00000000 2353.88467297 -41.93145126
v 5500.00000000 2379.46766730 -1.57887014
v 5500.00000000 2394.86141577 39.12304423
v 7000.00000000 1100.00000000 0.00000000
v 7000.00000000 1097.64481556 17.98586054
v 7000.00000000 1090.58934751 35.89470286
v 7000.00000000 1078.86380844 53.64983855
v 7000.00000000 1062.51840892 71.17523740
v 7000.00000000 1041.62314244 88.39585296
v 7000.00000000 1016.26748576 105.23794390
v 7000.00000000 986.56001569 121.62938981
v 7000.00000000 952.62794416 137.50000000
v 7000.00000000 914.61657353 152.78181408
v 7000.00000000 872.68867432 167.40939298
v 7000.00000000 827.02378823 181.32009915
v 7000.00000000 777.81745931 194.45436483
v 7000.00000000 725.28039661 206.75594706
v 7000.00000000 669.63757191 218.17216858
v 7000.00000000 611.12725632 228.65414338
v 7000.00000000 550.00000000 238.15698604
v 7000.00000000 486.51755924 246.64000392
v 7000.00000000 420.95177560 254.06687144
v 7000.00000000 353.58341183 260.40578561
v 7000.00000000 284.70094961 265.62960223
v 7000.00000000 214.59935422 269.71595211
v 7000.00000000 143.57881144 272.64733688
v 7000.00000000 71.94344215 274.41120389
v 7000.00000000 0.00000000 275.00000000
v 7000.00000000 -71.94344215 274.41120389
v 7000.00000000 -143.57881144 272.64733688
v 7000.00000000 -214.59935422 269.71595211
v 7000.00000000 -284.70094961 265.62960223
v 7000.00000000 -353.58341183 260.40578561
v 7000.00000000 -420.95177560 254.06687144
v 7000.00000000 -486.51755924 246.64000392
v 7000.00000000 -550.00000000 238.15698604
v 7000.00000000 -611.12725632 228.65414338
v 7000.00000000 -669.63757191 218.17216858
v 7000.00000000 -725.28039661 206.75594706
v 7000.00000000 -777.81745931 194.45436483
v 7000.00000000 -827.02378823 181.32009915
v 7000.00000000 -872.68867432 167.40939298
v 7000.00000000 -914.61657353 152.78181408
v 7000.00000000 -952.62794416 137.50000000
v 7000.00000000 -986.56001569 121.62938981
v 7000.00000000 -1016.26748576 105.23794390
v 7000.00000000 -1041.62314244 88.39585296
v 7000.00000000 -1062.51840892 71.17523740
v 7000.00000000 -1078.86380844 53.64983855
v 7000.00000000 -1090.58934751 35.89470286
v 7000.00000000 -1097.64481556 17.98586054
v 7000.00000000 -1100.00000000 0.00000000
v 7000.00000000 -1097.64481556 -17.98586054
v 7000.00000000 -1090.58934751 -35.89470286
v 7000.00000000 -1078.86380844 -53.64983855
v 7000.00000000 -1062.51840892 -71.17523740
v 7000.00000000 -1041.62314244 -88.39585296
v 7000.00000000 -1016.26748576 -105.23794390
v 7000.00000000 -986.56001569 -121.62938981
v 7000.00000000 -952.62794416 -137.50000000
v 7000.00000000 -914.61657353 -152.78181408
v 7000.00000000 -872.68867432 -167.40939298
v 7000.00000000 -827.02378823 -181.32009915
v 7000.00000000 -777.81745931 -194.45436483
v 7000.00000000 -725.28039661 -206.75594706
v 7000.00000000 -669.63757191 -218.17216858
v 7000.00000000 -611.12725632 -228.65414338
v 7000.00000000 -550.00000000 -238.15698604
v 7000.00000000 -486.51755924 -246.64000392
v 7000.00000000 -420.95177560 -254.06687144
v 7000.00000000 -353.58341183 -260.40578561
v 7000.00000000 -284.70094961 -265.62960223
v 7000.00000000 -214.59935422 -269.71595211
v 7000.00000000 -143.57881144 -272.64733688
v 7000.00000000 -71.94344215 -274.41120389
v 7000.00000000 -0.00000000 -275.00000000
v 7000.00000000 71.94344215 -274.41120389
v 7000.00000000 143.57881144 -272.64733688
v 7000.00000000 214.59935422 -269.71595211
v 7000.00000000 284.70094961 -265.62960223
v 7000.00000000 353.58341183 -260.40578561
v 7000.00000000 420.95177560 -254.06687144
v 7000.00000000 486.51755924 -246.64000392
v 7000.00000000 550.00000000 -238.15698604
v 7000.00000000 611.12725632 -228.65414338
v 7000.00000000 669.63757191 -218.17216858
v 7000.00000000 725.28039661 -206.75594706
v 7000.00000000 777.81745931 -194.45436483
v 7000.00000000 827.02378823 -181.32009915
v 7000.00000000 872.68867432 -167.40939298
v 7000.00000000 914.61657353 -152.78181408
v 7000.00000000 952.62794416 -137.50000000
v 7000.00000000 986.56001569 -121.62938981
v 7000.00000000 1016.26748576 -105.23794390
v 7000.00000000 1041.62314244 -88.39585296
v 7000.00000000 1062.51840892 -71.17523740
v 7000.00000000 1078.86380844 -53.64983855
v 7000.00000000 1090.58934751 -35.89470286
v 7000.00000000 1097.64481556 -17.98586054
v 8000.00000000 60.00000000 -50.00000000
v 8000.00000000 59.87153539 -46.72984354
v 8000.00000000 59.48669168 -43.47369039
v 8000.00000000 58.84711682 -40.24548390
v 8000.00000000 57.95554958 -37.05904774
v 8000.00000000 56.81580777 -33.92802673
v 8000.00000000 55.43277195 -30.86582838
v 8000.00000000 53.81236449 -27.88556549
v 8000.00000000 51.96152423 -25.00000000
v 8000.00000000 49.88817674 -22.22148835
v 8000.00000000 47.60120042 -19.56192855
v 8000.00000000 45.11038845 -17.03270924
v 8000.00000000 42.42640687 -14.64466094
v 8000.00000000 39.56074891 -12.40800963
v 8000.00000000 36.52568574 -10.33233299
v 8000.00000000 33.33421398 -8.42651938
v 8000.00000000 30.00000000 -6.69872981
v 8000.00000000 26.53732141 -5.15636292
v 8000.00000000 22.96100594 -3.80602337
v 8000.00000000 19.28636792 -2.65349353
v 8000.00000000 15.52914271 -1.70370869
v 8000.00000000 11.70541932 -0.96073598
v 8000.00000000 7.83157153 -0.42775693
v 8000.00000000 3.92418775 -0.10705384
v 8000.00000000 0.00000000 0.00000000
v 8000.00000000 -3.92418775 -0.10705384
v 8000.00000000 -7.83157153 -0.42775693
v 8000.00000000 -11.70541932 -0.96073598
v 8000.00000000 -15.52914271 -1.70370869
v 8000.00000000 -19.28636792 -2.65349353
v 8000.00000000 -22.96100594 -3.80602337
v 8000.00000000 -26.53732141 -5.15636292
v 8000.00000000 -30.00000000 -6.69872981
v 8000.00000000 -33.33421398 -8.42651938
v 8000.00000000 -36.52568574 -10.33233299
v 8000.00000000 -39.56074891 -12.40800963
v 8000.00000000 -42.42640687 -14.64466094
v 8000.00000000 -45.11038845 -17.03270924
v 8000.00000000 -47.60120042 -19.56192855
v 8000.00000000 -49.88817674 -22.22148835
v 8000.00000000 -51.96152423 -25.00000000
v 8000.00000000 -53.81236449 -27.88556549
v 8000.00000000 -55.43277195 -30.86582838
v 8000.00000000 -56.81580777 -33.92802673
v 8000.00000000 -57.95554958 -37.05904774
v 8000.00000000 -58.84711682 -40.24548390
v 8000.00000000 -59.48669168 -43.47369039
v 8000.00000000 -59.87153539 -46.72984354
v 8000.00000000 -60.00000000 -50.00000000
v 8000.00000000 -59.87153539 -53.27015646
v 8000.00000000 -59.48669168 -56.52630961
v 8000.00000000 -58.84711682 -59.75451610
v 8000.00000000 -57.95554958 -62.94095226
v 8000.00000000 -56.81580777 -66.07197327
v 8000.00000000 -55.43277195 -69.13417162
v 8000.00000000 -53.81236449 -72.11443451
v 8000.00000000 -51.96152423 -75.00000000
v 8000.00000000 -49.88817674 -77.77851165
v 8000.00000000 -47.60120042 -80.43807145
v 8000.00000000 -45.11038845 -82.96729076
v 8000.00000000 -42.42640687 -85.35533906
v 8000.00000000 -39.56074891 -87.59199037
v 8000.00000000 -36.52568574 -89.66766701
v 8000.00000000 -33.33421398 -91.57348062
v 8000.00000000 -30.00000000 -93.30127019
v 8000.00000000 -26.53732141 -94.84363708
v 8000.00000000 -22.96100594 -96.19397663
v 8000.00000000 -19.28636792 -97.34650647
v 8000.00000000 -15.52914271 -98.29629131
v 8000.00000000 -11.70541932 -99.03926402
v 8000.00000000 -7.83157153 -99.57224307
v 8000.00000000 -3.92418775 -99.89294616
v 8000.00000000 -0.00000000 -100.00000000
v 8000.00000000 3.92418775 -99.89294616
v 8000.00000000 7.83157153 -99.57224307
v 8000.00000000 11.70541932 -99.03926402
v 8000.00000000 15.52914271 -98.29629131
v 8000.00000000 19.28636792 -97.34650647
v 8000.00000000 22.96100594 -96.19397663
v 8000.00000000 26.53732141 -94.84363708
v 8000.00000000 30.00000000 -93.30127019
v 8000.00000000 33.33421398 -91.57348062
v 8000.00000000 36.52568574 -89.66766701
v 8000.00000000 39.56074891 -87.59199037
v 8000.00000000 42.42640687 -85.35533906
v 8000.00000000 45.11038845 -82.96729076
v 8000.00000000 47.60120042 -80.43807145
v 8000.00000000 49.88817674 -77.77851165
v 8000.00000000 51.96152423 -75.00000000
v 8000.00000000 53.81236449 -72.11443451
v 8000.00000000 55.43277195 -69.13417162
v 8000.00000000 56.81580777 -66.07197327
v 8000.00000000 57.95554958 -62.94095226
v 8000.00000000 58.84711682 -59.75451610
v 8000.00000000 59.48669168 -56.52630961
v 8000.00000000 59.87153539 -53.27015646
v 0.00000000 0.00000000 0.00000000
v 8000.00000000 0.00000000 -50.00000000
f 1 2 98
f 1 98 97
f 2 3 99
f 2 99 98
f 3 4 100
f 3 100 99
f 4 5 101
f 4 101 100
f 5 6 102
f 5 102 101
f 6 7 103
f 6 103 102
f 7 8 104
f 7 104 103
f 8 9 105
f 8 105 104
f 9 10 106
f 9 106 105
f 10 11 107
f 10 107 106
f 11 12 108
f 11 108 107
f 12 13 109
f 12 109 108
f 13 14 110
f 13 110 109
f 14 15 111
f 14 111 110
f 15 16 112
f 15 112 111
f 16 17 113
f 16 113 112
f 17 18 114
f 17 114 113
f 18 19 115
f 18 115 114
f 19 20 116
f 19 116 115
f 20 21 117
f 20 117 116
f 21 22 118
f 21 118 117
f 22 23 119
f 22 119 118
f 23 24 120
f 23 120 119
f 24 25 121
f 24 121 120
f 25 26 122
f 25 122 121
f 26 27 123
f 26 123 122
f 27 28 124
f 27 124 123
f 28 29 125
f 28 125 124
f 29 30 126
f 29 126 125
f 30 31 127
f 30 127 126
f 31 32 128
f 31 128 127
f 32 33 129
f 32 129 128
f 33 34 130
f 33 130 129
f 34 35 131
f 34 131 130
f 35 36 132
f 35 132 131
f 36 37 133
f 36 133 132
f 37 38 134
f 37 134 133
f 38 39 135
f 38 135 134
f 39 40 136
f 39 136 135
f 40 41 137
f 40 137 136
f 41 42 138
f 41 138 137
f 42 43 139
f 42 139 138
f 43 44 140
f 43 140 139
f 44 45 141
f 44 141 140
f 45 46 142
f 45 142 141
f 46 47 143
f 46 143 142
f 47 48 144
f 47 144 143
f 48 49 145
f 48 145 144
f 49 50 146
f 49 146 145
f 50 51 147
f 50 147 146
f 51 52 148
f 51 148 147
f 52 53 149
f 52 149 148
f 53 54 150
f 53 150 149
f 54 55 151
f 54 151 150
f 55 56 152
f 55 152 151
f 56 57 153
f 56 153 152
f 57 58 154
f 57 154 153
f 58 59 155
f 58 155 154
f 59 60 156
f 59 156 155
f 60 61 157
f 60 157 156
f 61 62 158
f 61 158 157
f 62 63 159
f 62 159 158
f 63 64 160
f 63 160 159
f 64 65 161
f 64 161 160
f 65 66 162
f 65 162 161
f 66 67 163
f 66 163 162
f 67 68 164
f 67 164 163
f 68 69 165
f 68 165 164
f 69 70 166
f 69 166 165
f 70 71 167
f 70 167 166
f 71 72 168
f 71 168 167
f 72 73 169
f 72 169 168
f 73 74 170
f 73 170 169
f 74 75 171
f 74 171 170
f 75 76 172
f 75 172 171
f 76 77 173
f 76 173 172
f 77 78 174
f 77 174 173
f 78 79 175
f 78 175 174
f 79 80 176
f 79 176 175
f 80 81 177
f 80 177 176
f 81 82 178
f 81 178 177
f 82 83 179
f 82 179 178
f 83 84 180
f 83 180 179
f 84 85 181
f 84 181 180
f 85 86 182
f 85 182 181
f 86 87 183
f 86 183 182
f 87 88 184
f 87 184 183
f 88 89 185
f 88 185 184
f 89 90 186
f 89 186 185
f 90 91 187
f 90 187 186
f 91 92 188
f 91 188 187
f 92 93 189
f 92 189 188
f 93 94 190
f 93 190 189
f 94 95 191
f 94 191 190
f 95 96 192
f 95 192 191
f 96 1 97
f 96 97 192
f 97 98 194
f 97 194 193
f 98 99 195
f 98 195 194
f 99 100 196
f 99 196 195
f 100 101 197
f 100 197 196
f 101 102 198
f 101 198 197
f 102 103 199
f 102 199 198
f 103 104 200
f 103 200 199
f 104 105 201
f 104 201 200
f 105 106 202
f 105 202 201
f 106 107 203
f 106 203 202
f 107 108 204
f 107 204 203
f 108 109 205
f 108 205 204
f 109 110 206
f 109 206 205
f 110 111 207
f 110 207 206
f 111 112 208
f 111 208 207
f 112 113 209
f 112 209 208
f 113 114 210
f 113 210 209
f 114 115 211
f 114 211 210
f 115 116 212
f 115 212 211
f 116 117 213
f 116 213 212
f 117 118 214
f 117 214 213
f 118 119 215
f 118 215 214
f 119 120 216
f 119 216 215
f 120 121 217
f 120 217 216
f 121 122 218
f 121 218 217
f 122 123 219
f 122 219 218
f 123 124 220
f 123 220 219
f 124 125 221
f 124 221 220
f 125 126 222
f 125 222 221
f 126 127 223
f 126 223 222
f 127 128 224
f 127 224 223
f 128 129 225
f 128 225 224
f 129 130 226
f 129 226 225
f 130 131 227
f 130 227 226
f 131 132 228
f 131 228 227
f 132 133 229
f 132 229 228
f 133 134 230
f 133 230 229
f 134 135 231
f 134 231 230
f 135 136 232
f 135 232 231
f 136 137 233
f 136 233 232
f 137 138 234
f 137 234 233
f 138 139 235
f 138 235 234
f 139 140 236
f 139 236 235
f 140 141 237
f 140 237 236
f 141 142 238
f 141 238 237
f 142 143 239
f 142 239 238
f 143 144 240
f 143 240 239
f 144 145 241
f 144 241 240
f 145 146 242
f 145 242 241
f 146 147 243
f 146 243 242
f 147 148 244
f 147 244 243
f 148 149 245
f 148 245 244
f 149 150 246
f 149 246 245
f 150 151 247
f 150 247 246
f 151 152 248
f 151 248 247
f 152 153 249
f 152 249 248
f 153 154 250
f 153 250 249
f 154 155 251
f 154 251 250
f 155 156 252
f 155 252 251
f 156 157 253
f 156 253 252
f 157 158 254
f 157 254 253
f 158 159 255
f 158 255 254
f 159 160 256
f 159 256 255
f 160 161 257
f 160 257 256
f 161 162 258
f 161 258 257
f 162 163 259
f 162 259 258
f 163 164 260
f 163 260 259
f 164 165 261
f 164 261 260
f 165 166 262
f 165 262 261
f 166 167 263
f 166 263 262
f 167 168 264
f 167 264 263
f 168 169 265
f 168 265 264
f 169 170 266
f 169 266 265
f 170 171 267
f 170 267 266
f 171 172 268
f 171 268 267
f 172 173 269
f 172 269 268
f 173 174 270
f 173 270 269
f 174 175 271
f 174 271 270
f 175 176 272
f 175 272 271
f 176 177 273
f 176 273 272
f 177 178 274
f 177 274 273
f 178 179 275
f 178 275 274
f 179 180 276
f 179 276 275
f 180 181 277
f 180 277 276
f 181 182 278
f 181 278 277
f 182 183 279
f 182 279 278
f 183 184 280
f 183 280 279
f 184 185 281
f 184 281 280
f 185 186 282
f 185 282 281
f 186 187 283
f 186 283 282
f 187 188 284
f 187 284 283
f 188 189 285
f 188 285 284
f 189 190 286
f 189 286 285
f 190 191 287
f 190 287 286
f 191 192 288
f 191 288 287
f 192 97 193
f 192 193 288
f 193 194 290
f 193 290 289
f 194 195 291
f 194 291 290
f 195 196 292
f 195 292 291
f 196 197 293
f 196 293 292
f 197 198 294
f 197 294 293
f 198 199 295
f 198 295 294
f 199 200 296
f 199 296 295
f 200 201 297
f 200 297 296
f 201 202 298
f 201 298 297
f 202 203 299
f 202 299 298
f 203 204 300
f 203 300 299
f 204 205 301
f 204 301 300
f 205 206 302
f 205 302 301
f 206 207 303
f 206 303 302
f 207 208 304
f 207 304 303
f 208 209 305
f 208 305 304
f 209 210 306
f 209 306 305
f 210 211 307
f 210 307 306
f 211 212 308
f 211 308 307
f 212 213 309
f 212 309 308
f 213 214 310
f 213 310 309
f 214 215 311
f 214 311 310
f 215 216 312
f 215 312 311
f 216 217 313
f 216 313 312
f 217 218 314
f 217 314 313
f 218 219 315
f 218 315 314
f 219 220 316
f 219 316 315
f 220 221 317
f 220 317 316
f 221 222 318
f 221 318 317
f 222 223 319
f 222 319 318
f 223 224 320
f 223 320 319
f 224 225 321
f 224 321 320
f 225 226 322
f 225 322 321
f 226 227 323
f 226 323 322
f 227 228 324
f 227 324 323
f 228 229 325
f 228 325 324
f 229 230 326
f 229 326 325
f 230 231 327
f 230 327 326
f 231 232 328
f 231 328 327
f 232 233 329
f 232 329 328
f 233 234 330
f 233 330 329
f 234 235 331
f 234 331 330
f 235 236 332
f 235 332 331
f 236 237 333
f 236 333 332
f 237 238 334
f 237 334 333
f 238 239 335
f 238 335 334
f 239 240 336
f 239 336 335
f 240 241 337
f 240 337 336
f 241 242 338
f 241 338 337
f 242 243 339
f 242 339 338
f 243 244 340
f 243 340 339
f 244 245 341
f 244 341 340
f 245 246 342
f 245 342 341
f 246 247 343
f 246 343 342
f 247 248 344
f 247 344 343
f 248 249 345
f 248 345 344
f 249 250 346
f 249 346 345
f 250 251 347
f 250 347 346
f 251 252 348
f 251 348 347
f 252 253 349
f 252 349 348
f 253 254 350
f 253 350 349
f 254 255 351
f 254 351 350
f 255 256 352
f 255 352 351
f 256 257 353
f 256 353 352
f 257 258 354
f 257 354 353
f 258 259 355
f 258 355 354
f 259 260 356
f 259 356 355
f 260 261 357
f 260 357 356
f 261 262 358
f 261 358 357
f 262 263 359
f 262 359 358
f 263 264 360
f 263 360 359
f 264 265 361
f 264 361 360
f 265 266 362
f 265 362 361
f 266 267 363
f 266 363 362
f 267 268 364
f 267 364 363
f 268 269 365
f 268 365 364
f 269 270 366
f 269 366 365
f 270 271 367
f 270 367 366
f 271 272 368
f 271 368 367
f 272 273 369
f 272 369 368
f 273 274 370
f 273 370 369
f 274 275 371
f 274 371 370
f 275 276 372
f 275 372 371
f 276 277 373
f 276 373 372
f 277 278 374
f 277 374 373
f 278 279 375
f 278 375 374
f 279 280 376
f 279 376 375
f 280 281 377
f 280 377 376
f 281 282 378
f 281 378 377
f 282 283 379
f 282 379 378
f 283 284 380
f 283 380 379
f 284 285 381
f 284 381 380
f 285 286 382
f 285 382 381
f 286 287 383
f 286 383 382
f 287 288 384
f 287 384 383
f 288 193 289
f 288 289 384
f 289 290 386
f 289 386 385
f 290 291 387
f 290 387 386
f 291 292 388
f 291 388 387
f 292 293 389
f 292 389 388
f 293 294 390
f 293 390 389
f 294 295 391
f 294 391 390
f 295 296 392
f 295 392 391
f 296 297 393
f 296 393 392
f 297 298 394
f 297 394 393
f 298 299 395
f 298 395 394
f 299 300 396
f 299 396 395
f 300 301 397
f 300 397 396
f 301 302 398
f 301 398 397
f 302 303 399
f 302 399 398
f 303 304 400
f 303 400 399
f 304 305 401
f 304 401 400
f 305 306 402
f 305 402 401
f 306 307 403
f 306 403 402
f 307 308 404
f 307 404 403
f 308 309 405
f 308 405 404
f 309 310 406
f 309 406 405
f 310 311 407
f 310 407 406
f 311 312 408
f 311 408 407
f 312 313 409
f 312 409 408
f 313 314 410
f 313 410 409
f 314 315 411
f 314 411 410
f 315 316 412
f 315 412 411
f 316 317 413
f 316 413 412
f 317 318 414
f 317 414 413
f 318 319 415
f 318 415 414
f 319 320 416
f 319 416 415
f 320 321 417
f 320 417 416
f 321 322 418
f 321 418 417
f 322 323 419
f 322 419 418
f 323 324 420
f 323 420 419
f 324 325 421
f 324 421 420
f 325 326 422
f 325 422 421
f 326 327 423
f 326 423 422
f 327 328 424
f 327 424 423
f 328 329 425
f 328 425 424
f 329 330 426
f 329 426 425
f 330 331 427
f 330 427 426
f 331 332 428
f 331 428 427
f 332 333 429
f 332 429 428
f 333 334 430
f 333 430 429
f 334 335 431
f 334 431 430
f 335 336 432
f 335 432 431
f 336 337 433
f 336 433 432
f 337 338 434
f 337 434 433
f 338 339 435
f 338 435 434
f 339 340 436
f 339 436 435
f 340 341 437
f 340 437 436
f 341 342 438
f 341 438 437
f 342 343 439
f 342 439 438
f 343 344 440
f 343 440 439
f 344 345 441
f 344 441 440
f 345 346 442
f 345 442 441
f 346 347 443
f 346 443 442
f 347 348 444
f 347 444 443
f 348 349 445
f 348 445 444
f 349 350 446
f 349 446 445
f 350 351 447
f 350 447 446
f 351 352 448
f 351 448 447
f 352 353 449
f 352 449 448
f 353 354 450
f 353 450 449
f 354 355 451
f 354 451 450
f 355 356 452
f 355 452 451
f 356 357 453
f 356 453 452
f 357 358 454
f 357 454 453
f 358 359 455
f 358 455 454
f 359 360 456
f 359 456 455
f 360 361 457
f 360 457 456
f 361 362 458
f 361 458 457
f 362 363 459
f 362 459 458
f 363 364 460
f 363 460 459
f 364 365 461
f 364 461 460
f 365 366 462
f 365 462 461
f 366 367 463
f 366 463 462
f 367 368 464
f 367 464 463
f 368 369 465
f 368 465 464
f 369 370 466
f 369 466 465
f 370 371 467
f 370 467 466
f 371 372 468
f 371 468 467
f 372 373 469
f 372 469 468
f 373 374 470
f 373 470 469
f 374 375 471
f 374 471 470
f 375 376 472
f 375 472 471
f 376 377 473
f 376 473 472
f 377 378 474
f 377 474 473
f 378 379 475
f 378 475 474
f 379 380 476
f 379 476 475
f 380 381 477
f 380 477 476
f 381 382 478
f 381 478 477
f 382 383 479
f 382 479 478
f 383 384 480
f 383 480 479
f 384 289 385
f 384 385 480
f 385 386 482
f 385 482 481
f 386 387 483
f 386 483 482
f 387 388 484
f 387 484 483
f 388 389 485
f 388 485 484
f 389 390 486
f 389 486 485
f 390 391 487
f 390 487 486
f 391 392 488
f 391 488 487
f 392 393 489
f 392 489 488
f 393 394 490
f 393 490 489
f 394 395 491
f 394 491 490
f 395 396 492
f 395 492 491
f 396 397 493
f 396 493 492
f 397 398 494
f 397 494 493
f 398 399 495
f 398 495 494
f 399 400 496
f 399 496 495
f 400 401 497
f 400 497 496
f 401 402 498
f 401 498 497
f 402 403 499
f 402 499 498
f 403 404 500
f 403 500 499
f 404 405 501
f 404 501 500
f 405 406 502
f 405 502 501
f 406 407 503
f 406 503 502
f 407 408 504
f 407 504 503
f 408 409 505
f 408 505 504
f 409 410 506
f 409 506 505
f 410 411 507
f 410 507 506
f 411 412 508
f 411 508 507
f 412 413 509
f 412 509 508
f 413 414 510
f 413 510 509
f 414 415 511
f 414 511 510
f 415 416 512
f 415 512 511
f 416 417 513
f 416 513 512
f 417 418 514
f 417 514 513
f 418 419 515
f 418 515 514
f 419 420 516
f 419 516 515
f 420 421 517
f 420 517 516
f 421 422 518
f 421 518 517
f 422 423 519
f 422 519 518
f 423 424 520
f 423 520 519
f 424 425 521
f 424 521 520
f 425 426 522
f 425 522 521
f 426 427 523
f 426 523 522
f 427 428 524
f 427 524 523
f 428 429 525
f 428 525 524
f 429 430 526
f 429 526 525
f 430 431 527
f 430 527 526
f 431 432 528
f 431 528 527
f 432 433 529
f 432 529 528
f 433 434 530
f 433 530 529
f 434 435 531
f 434 531 530
f 435 436 532
f 435 532 531
f 436 437 533
f 436 533 532
f 437 438 534
f 437 534 533
f 438 439 535
f 438 535 534
f 439 440 536
f 439 536 535
f 440 441 537
f 440 537 536
f 441 442 538
f 441 538 537
f 442 443 539
f 442 539 538
f 443 444 540
f 443 540 539
f 444 445 541
f 444 541 540
f 445 446 542
f 445 542 541
f 446 447 543
f 446 543 542
f 447 448 544
f 447 544 543
f 448 449 545
f 448 545 544
f 449 450 546
f 449 546 545
f 450 451 547
f 450 547 546
f 451 452 548
f 451 548 547
f 452 453 549
f 452 549 548
f 453 454 550
f 453 550 549
f 454 455 551
f 454 551 550
f 455 456 552
f 455 552 551
f 456 457 553
f 456 553 552
f 457 458 554
f 457 554 553
f 458 459 555
f 458 555 554
f 459 460 556
f 459 556 555
f 460 461 557
f 460 557 556
f 461 462 558
f 461 558 557
f 462 463 559
f 462 559 558
f 463 464 560
f 463 560 559
f 464 465 561
f 464 561 560
f 465 466 562
f 465 562 561
f 466 467 563
f 466 563 562
f 467 468 564
f 467 564 563
f 468 469 565
f 468 565 564
f 469 470 566
f 469 566 565
f 470 471 567
f 470 567 566
f 471 472 568
f 471 568 567
f 472 473 569
f 472 569 568
f 473 474 570
f 473 570 569
f 474 475 571
f 474 571 570
f 475 476 572
f 475 572 571
f 476 477 573
f 476 573 572
f 477 478 574
f 477 574 573
f 478 479 575
f 478 575 574
f 479 480 576
f 479 576 575
f 480 385 481
f 480 481 576
f 481 482 578
f 481 578 577
f 482 483 579
f 482 579 578
f 483 484 580
f 483 580 579
f 484 485 581
f 484 581 580
f 485 486 582
f 485 582 581
f 486 487 583
f 486 583 582
f 487 488 584
f 487 584 583
f 488 489 585
f 488 585 584
f 489 490 586
f 489 586 585
f 490 491 587
f 490 587 586
f 491 492 588
f 491 588 587
f 492 493 589
f 492 589 588
f 493 494 590
f 493 590 589
f 494 495 591
f 494 591 590
f 495 496 592
f 495 592 591
f 496 497 593
f 496 593 592
f 497 498 594
f 497 594 593
f 498 499 595
f 498 595 594
f 499 500 596
f 499 596 595
f 500 501 597
f 500 597 596
f 501 502 598
f 501 598 597
f 502 503 599
f 502 599 598
f 503 504 600
f 503 600 599
f 504 505 601
f 504 601 600
f 505 506 602
f 505 602 601
f 506 507 603
f 506 603 602
f 507 508 604
f 507 604 603
f 508 509 605
f 508 605 604
f 509 510 606
f 509 606 605
f 510 511 607
f 510 607 606
f 511 512 608
f 511 608 607
f 512 513 609
f 512 609 608
f 513 514 610
f 513 610 609
f 514 515 611
f 514 611 610
f 515 516 612
f 515 612 611
f 516 517 613
f 516 613 612
f 517 518 614
f 517 614 613
f 518 519 615
f 518 615 614
f 519 520 616
f 519 616 615
f 520 521 617
f 520 617 616
f 521 522 618
f 521 618 617
f 522 523 619
f 522 619 618
f 523 524 620
f 523 620 619
f 524 525 621
f 524 621 620
f 525 526 622
f 525 622 621
f 526 527 623
f 526 623 622
f 527 528 624
f 527 624 623
f 528 529 625
f 528 625 624
f 529 530 626
f 529 626 625
f 530 531 627
f 530 627 626
f 531 532 628
f 531 628 627
f 532 533 629
f 532 629 628
f 533 534 630
f 533 630 629
f 534 535 631
f 534 631 630
f 535 536 632
f 535 632 631
f 536 537 633
f 536 633 632
f 537 538 634
f 537 634 633
f 538 539 635
f 538 635 634
f 539 540 636
f 539 636 635
f 540 541 637
f 540 637 636
f 541 542 638
f 541 638 637
f 542 543 639
f 542 639 638
f 543 544 640
f 543 640 639
f 544 545 641
f 544 641 640
f 545 546 642
f 545 642 641
f 546 547 643
f 546 643 642
f 547 548 644
f 547 644 643
f 548 549 645
f 548 645 644
f 549 550 646
f 549 646 645
f 550 551 647
f 550 647 646
f 551 552 648
f 551 648 647
f 552 553 649
f 552 649 648
f 553 554 650
f 553 650 649
f 554 555 651
f 554 651 650
f 555 556 652
f 555 652 651
f 556 557 653
f 556 653 652
f 557 558 654
f 557 654 653
f 558 559 655
f 558 655 654
f 559 560 656
f 559 656 655
f 560 561 657
f 560 657 656
f 561 562 658
f 561 658 657
f 562 563 659
f 562 659 658
f 563 564 660
f 563 660 659
f 564 565 661
f 564 661 660
f 565 566 662
f 565 662 661
f 566 567 663
f 566 663 662
f 567 568 664
f 567 664 663
f 568 569 665
f 568 665 664
f 569 570 666
f 569 666 665
f 570 571 667
f 570 667 666
f 571 572 668
f 571 668 667
f 572 573 669
f 572 669 668
f 573 574 670
f 573 670 669
f 574 575 671
f 574 671 670
f 575 576 672
f 575 672 671
f 576 481 577
f 576 577 672
f 673 2 1
f 674 577 578
f 673 3 2
f 674 578 579
f 673 4 3
f 674 579 580
f 673 5 4
f 674 580 581
f 673 6 5
f 674 581 582
f 673 7 6
f 674 582 583
f 673 8 7
f 674 583 584
f 673 9 8
f 674 584 585
f 673 10 9
f 674 585 586
f 673 11 10
f 674 586 587
f 673 12 11
f 674 587 588
f 673 13 12
f 674 588 589
f 673 14 13
f 674 589 590
f 673 15 14
f 674 590 591
f 673 16 15
f 674 591 592
f 673 17 16
f 674 592 593
f 673 18 17
f 674 593 594
f 673 19 18
f 674 594 595
f 673 20 19
f 674 595 596
f 673 21 20
f 674 596 597
f 673 22 21
f 674 597 598
f 673 23 22
f 674 598 599
f 673 24 23
f 674 599 600
f 673 25 24
f 674 600 601
f 673 26 25
f 674 601 602
f 673 27 26
f 674 602 603
f 673 28 27
f 674 603 604
f 673 29 28
f 674 604 605
f 673 30 29
f 674 605 606
f 673 31 30
f 674 606 607
f 673 32 31
f 674 607 608
f 673 33 32
f 674 608 609
f 673 34 33
f 674 609 610
f 673 35 34
f 674 610 611
f 673 36 35
f 674 611 612
f 673 37 36
f 674 612 613
f 673 38 37
f 674 613 614
f 673 39 38
f 674 614 615
f 673 40 39
f 674 615 616
f 673 41 40
f 674 616 617
f 673 42 41
f 674 617 618
f 673 43 42
f 674 618 619
f 673 44 43
f 674 619 620
f 673 45 44
f 674 620 621
f 673 46 45
f 674 621 622
f 673 47 46
f 674 622 623
f 673 48 47
f 674 623 624
f 673 49 48
f 674 624 625
f 673 50 49
f 674 625 626
f 673 51 50
f 674 626 627
f 673 52 51
f 674 627 628
f 673 53 52
f 674 628 629
f 673 54 53
f 674 629 630
f 673 55 54
f 674 630 631
f 673 56 55
f 674 631 632
f 673 57 56
f 674 632 633
f 673 58 57
f 674 633 634
f 673 59 58
f 674 634 635
f 673 60 59
f 674 635 636
f 673 61 60
f 674 636 637
f 673 62 61
f 674 637 638
f 673 63 62
f 674 638 639
f 673 64 63
f 674 639 640
f 673 65 64
f 674 640 641
f 673 66 65
f 674 641 642
f 673 67 66
f 674 642 643
f 673 68 67
f 674 643 644
f 673 69 68
f 674 644 645
f 673 70 69
f 674 645 646
f 673 71 70
f 674 646 647
f 673 72 71
f 674 647 648
f 673 73 72
f 674 648 649
f 673 74 73
f 674 649 650
f 673 75 74
f 674 650 651
f 673 76 75
f 674 651 652
f 673 77 76
f 674 652 653
f 673 78 77
f 674 653 654
f 673 79 78
f 674 654 655
f 673 80 79
f 674 655 656
f 673 81 80
f 674 656 657
f 673 82 81
f 674 657 658
f 673 83 82
f 674 658 659
f 673 84 83
f 674 659 660
f 673 85 84
f 674 660 661
f 673 86 85
f 674 661 662
f 673 87 86
f 674 662 663
f 673 88 87
f 674 663 664
f 673 89 88
f 674 664 665
f 673 90 89
f 674 665 666
f 673 91 90
f 674 666 667
f 673 92 91
f 674 667 668
f 673 93 92
f 674 668 669
f 673 94 93
f 674 669 670
f 673 95 94
f 674 670 671
f 673 96 95
f 674 671 672
f 673 1 96
f 674 672 577

